<?xml version="1.0" encoding="utf-8"?>
<!-- Generator: Adobe Illustrator 14.0.0, SVG Export Plug-In  -->
<!DOCTYPE svg PUBLIC "-//W3C//DTD SVG 1.1//EN" "http://www.w3.org/Graphics/SVG/1.1/DTD/svg11.dtd" [
	<!ENTITY ns_flows "http://ns.adobe.com/Flows/1.0/">
]>
<svg version="1.1"
	 xmlns="http://www.w3.org/2000/svg" xmlns:xlink="http://www.w3.org/1999/xlink" xmlns:a="http://ns.adobe.com/AdobeSVGViewerExtensions/3.0/"
	 x="0px" y="0px" width="80px" height="80px" viewBox="-15.844 -13.72 80 80" enable-background="new -15.844 -13.72 80 80"
	 xml:space="preserve">
<defs>
</defs>
<path fill="#FFFFFF" d="M12.361,27.122c1.629-0.541,4.708-0.957,8.025-0.34c4.112,0.766,7.437,2.919,9.614,6.229
	c0.204,0.312,0.23,0.71,0.071,1.047c-0.162,0.338-0.489,0.566-0.861,0.603c-0.029,0.003-2.836,0.28-6.021,0.921l0.683,2.175
	c0.176,0.563-0.136,1.163-0.697,1.339c-0.109,0.033-0.216,0.049-0.321,0.049c-0.455,0-0.875-0.292-1.019-0.747l-0.738-2.349
	c-0.461,0.112-0.9,0.23-1.312,0.35c-0.02,0.005-0.039,0.011-0.057,0.016l0.726,2.241c0.181,0.562-0.126,1.162-0.688,1.345
	c-0.108,0.035-0.22,0.053-0.329,0.053c-0.449,0-0.869-0.288-1.014-0.739l-0.736-2.273c-0.26,0.083-0.513,0.164-0.764,0.243
	c-1.608,0.519-2.769,0.893-3.544,0.949c-0.026,0.003-0.053,0.004-0.082,0.004c-0.551,0-1.02-0.425-1.062-0.985
	c-0.045-0.589,0.396-1.101,0.982-1.146c0.524-0.04,1.754-0.436,3.053-0.854c0.571-0.184,1.164-0.373,1.79-0.567
	c0.375-0.114,0.756-0.229,1.132-0.338c0.732-0.21,1.537-0.415,2.393-0.608c2.104-0.471,4.138-0.788,5.542-0.978
	c-4.691-5.278-12.189-4.248-14.091-3.613c-1.512,0.503-4.016,1.719-3.825,4.212c0.045,0.587-0.395,1.101-0.981,1.147
	c-0.591,0.043-1.102-0.397-1.146-0.986C6.863,30.644,8.786,28.311,12.361,27.122L12.361,27.122z"/>
<path fill="#FFFFFF" d="M6.824,41.147c-2.646-1.769-4.161-4.096-4.264-6.554c-0.005-0.091-0.006-0.178-0.006-0.273
	c0-3.948,3.736-7.577,9.301-9.032l0,0c1.687-0.44,3.471-0.665,5.298-0.665c3.964,0,7.675,1.049,10.456,2.951
	c0.002,0.004,0.005,0.004,0.007,0.007c2.668,1.829,4.138,4.222,4.138,6.739c0,1.55-0.546,3.037-1.623,4.416
	c-0.877,1.127-2.061,2.12-3.521,2.949c-2.639,1.504-6,2.329-9.457,2.329c-0.966,0-1.917-0.063-2.847-0.185
	c-0.005,0-0.009,0-0.012-0.001C11.485,43.457,8.9,42.535,6.824,41.147L6.824,41.147z M15.258,50.395v-4.319
	c0.625,0.049,1.258,0.074,1.896,0.074c0.179,0,0.358-0.004,0.536-0.008v4.253H15.258L15.258,50.395z M32.109,46.043
	c-1.445-0.656-2.674-1.73-3.526-3.062c0.968-0.637,1.818-1.35,2.544-2.126c2.651,1.965,5.971,3.793,8.106,4.751
	c-0.396,0.462-1.124,0.783-1.749,0.937C35.696,46.983,33.788,46.806,32.109,46.043L32.109,46.043z M47.094,41.173
	c-0.764,2.404-3.339,3.74-5.743,2.979c-0.094-0.029-0.202-0.067-0.337-0.116c-1.765-0.662-5.643-2.7-8.579-4.868
	c0.952-1.514,1.452-3.17,1.452-4.848c0-3.02-1.559-5.845-4.41-8.026c1.168-3.453,2.933-7.021,3.771-8.197
	c0.711-0.993,1.768-1.653,2.971-1.855c1.206-0.201,2.418,0.079,3.41,0.79c2.017,1.437,2.517,4.268,1.115,6.309
	c-0.24,0.349-0.25,0.808-0.027,1.168c0.224,0.359,0.64,0.553,1.059,0.492c2.184-0.315,4.279,0.978,4.982,3.071
	c0.728,2.165-0.268,4.555-2.313,5.56c-0.376,0.186-0.608,0.572-0.598,0.99c0.015,0.419,0.27,0.791,0.657,0.952
	C46.701,36.491,47.815,38.9,47.094,41.173L47.094,41.173z M12.016,3.428c1.246,1.447,1.442,4.279,0.585,8.416
	c-0.522,2.533-1.617,9.372-1.964,11.568c-2.826,0.838-5.258,2.201-7.062,3.968c-0.185,0.181-0.363,0.365-0.532,0.556
	c0.831-4.325,2.376-8.468,3.032-10.121c1.523-0.026,2.879-1.254,3.133-2.939c0.084-0.55,0.103-3.215,0.107-4.02
	c0.003-0.588-0.472-1.07-1.061-1.072c-0.003,0-0.005,0-0.007,0c-0.587,0-1.064,0.475-1.066,1.062
	c-0.009,1.554-0.043,3.415-0.084,3.712c-0.104,0.684-0.647,1.198-1.187,1.112c-0.05-0.005-0.097-0.019-0.142-0.034
	c-0.473-0.171-0.754-0.766-0.659-1.385c0.047-0.286,0.54-2.01,0.976-3.448c0-0.003,0.001-0.004,0.001-0.008
	c0,0,0.002-0.002,0.002-0.005c0.002-0.005,0.003-0.01,0.005-0.016c0.008-0.027,0.015-0.057,0.021-0.084
	c0.003-0.014,0.005-0.029,0.007-0.044c0.002-0.019,0.005-0.039,0.008-0.058c0.002-0.02,0.002-0.039,0.004-0.06
	c0.001-0.014,0.001-0.026,0.001-0.042c0-0.022-0.001-0.044-0.003-0.066c0-0.012,0-0.023-0.002-0.037
	c-0.001-0.02-0.005-0.042-0.008-0.063c-0.002-0.014-0.003-0.026-0.005-0.038c-0.005-0.02-0.01-0.039-0.015-0.058
	c-0.003-0.014-0.007-0.029-0.013-0.046c-0.003-0.015-0.008-0.03-0.015-0.045c-0.006-0.02-0.013-0.036-0.019-0.054
	c-0.006-0.014-0.012-0.023-0.018-0.037c-0.01-0.02-0.017-0.039-0.027-0.058C6.005,9.974,5.997,9.964,5.99,9.955
	C5.98,9.933,5.97,9.916,5.957,9.897C5.95,9.884,5.941,9.875,5.934,9.862c-0.012-0.016-0.024-0.03-0.036-0.048
	C5.885,9.798,5.873,9.785,5.858,9.77C5.85,9.76,5.841,9.749,5.829,9.737c-0.021-0.021-0.042-0.038-0.064-0.06
	c-0.005-0.003-0.008-0.008-0.01-0.01C5.754,9.666,5.752,9.666,5.752,9.666c-0.004-0.002-0.009-0.008-0.015-0.01
	c-0.566-0.475-1.632-1.044-3.253-0.69C3.093,6.48,4.604,2.332,7.913,2.15C9.844,2.045,11.185,2.463,12.016,3.428L12.016,3.428z
	 M1.594,11.6c0.897-0.507,1.633-0.699,2.198-0.581C3.486,12.054,3.06,13.53,3,13.929c-0.189,1.225,0.244,2.404,1.071,3.138
	C2.987,19.78-0.16,28.334,0.423,34.735c0.003,0.03,0.006,0.059,0.012,0.086c0.178,3.1,2.021,5.974,5.201,8.101
	c2.121,1.418,4.697,2.402,7.486,2.886v4.588h-2.177c-0.59,0-1.068,0.476-1.068,1.066c0,0.588,0.479,1.066,1.068,1.066h11.191
	c0.59,0,1.066-0.479,1.066-1.066c0-0.591-0.477-1.066-1.066-1.066h-2.312v-4.396c2.476-0.282,4.841-0.953,6.899-1.963
	c1.075,1.724,2.649,3.109,4.503,3.951c1.351,0.615,2.821,0.929,4.296,0.929c0.832,0,1.662-0.099,2.473-0.3
	c1.569-0.387,2.741-1.207,3.303-2.272c0.479,0.106,0.956,0.158,1.43,0.158c2.847,0,5.495-1.828,6.4-4.681
	c0.509-1.609,0.398-3.337-0.314-4.865c-0.448-0.958-1.107-1.786-1.919-2.428c1.948-1.75,2.756-4.553,1.886-7.136
	c-0.827-2.467-2.972-4.173-5.443-4.514c0.351-1.048,0.438-2.172,0.241-3.29c-0.307-1.743-1.269-3.269-2.709-4.296
	c-1.459-1.041-3.235-1.451-5.003-1.158c-1.769,0.296-3.315,1.263-4.356,2.722c-0.981,1.374-2.692,4.888-3.873,8.223
	c-2.958-1.678-6.626-2.591-10.484-2.591c-1.454,0-2.884,0.132-4.269,0.386c0.438-2.749,1.354-8.414,1.806-10.595
	c1.014-4.89,0.667-8.239-1.056-10.243c-1.274-1.48-3.238-2.157-5.838-2.018C1.295,0.374,0.058,10.129,0.008,10.545
	c-0.048,0.398,0.134,0.792,0.469,1.015C0.812,11.782,1.243,11.799,1.594,11.6L1.594,11.6z"/>
<path fill="#FFFFFF" d="M36.359,21.725c-1.374,0-1.377-2.136,0-2.136C37.732,19.589,37.735,21.725,36.359,21.725L36.359,21.725z"/>
<path fill="#FFFFFF" d="M43.049,28.343c1.374,0,1.375,2.136,0,2.136C41.676,30.479,41.672,28.343,43.049,28.343L43.049,28.343z"/>
<path fill="#FFFFFF" d="M43.972,39.233c1.376,0,1.378,2.135,0,2.135C42.6,41.368,42.598,39.233,43.972,39.233L43.972,39.233z"/>
<path fill="#FFFFFF" d="M9.741,35.318c1.374,0,1.376,2.136,0,2.136C8.367,37.454,8.365,35.318,9.741,35.318L9.741,35.318z"/>
</svg>
