<?xml version="1.0" encoding="utf-8"?>
<!-- Generator: Adobe Illustrator 14.0.0, SVG Export Plug-In  -->
<!DOCTYPE svg PUBLIC "-//W3C//DTD SVG 1.1//EN" "http://www.w3.org/Graphics/SVG/1.1/DTD/svg11.dtd" [
	<!ENTITY ns_flows "http://ns.adobe.com/Flows/1.0/">
]>
<svg version="1.1"
	 xmlns="http://www.w3.org/2000/svg" xmlns:xlink="http://www.w3.org/1999/xlink" xmlns:a="http://ns.adobe.com/AdobeSVGViewerExtensions/3.0/"
	 x="0px" y="0px" width="80px" height="80px" viewBox="-3.354 -14.141 80 80" enable-background="new -3.354 -14.141 80 80"
	 xml:space="preserve">
<defs>
</defs>
<path fill="#FFFFFF" d="M69.32,29.992l-0.816,1.095c-2.865,3.505-4.646,14.55-5.205,18.501H58.79h-0.011
	c0.27-0.475,0.509-0.831,0.658-0.967c0.482-0.322,0.727-0.901,0.622-1.473l-2.185-11.939c-0.146-0.794-0.904-1.317-1.697-1.174
	c-0.793,0.146-1.317,0.905-1.172,1.697l0.271,1.484c-3.32,1.632-6.334,1.938-11.08,1.938c-3.652,0-7.222-0.608-10.375-1.763
	c0.147-0.234,0.299-0.458,0.457-0.671c0.479-0.646,0.344-1.561-0.302-2.04c-0.646-0.48-1.561-0.345-2.04,0.302
	c-3.086,4.157-4.213,11.56-4.56,14.604h-1.985h-2.779c0.27-0.475,0.509-0.831,0.659-0.967c0.33-0.223,0.556-0.568,0.624-0.961
	l1.051-6.043c0.022-0.13,0.027-0.262,0.014-0.394l-0.577-5.774c-0.07-0.706-0.64-1.261-1.348-1.311l-2.886-0.204
	c-0.939-0.066-1.615-0.244-2.606-0.569l-11.62-3.807c0.05-0.116,0.098-0.241,0.146-0.372c0.412-1.157,0.64-2.666,0.64-4.25
	c0-1.582-0.228-3.09-0.64-4.249c-0.085-0.235-0.177-0.45-0.27-0.646c3.092-1.628,5.83-3.937,7.951-6.714l2.957-3.877
	c0.914,1.324,1.242,2.688,1.267,2.8c0.153,0.678,0.754,1.138,1.42,1.138c0.106,0,0.211-0.011,0.318-0.034
	c0.787-0.175,1.283-0.955,1.108-1.741c-0.017-0.077-0.441-1.936-1.696-3.782c-1.25-1.838-2.885-3.045-4.803-3.567
	c0.787-0.806,1.756-1.052,2.55-1.088c1.291-0.06,2.836,0.408,4.233,1.397c0.044,0.037,0.093,0.071,0.143,0.102
	c1.115,0.823,2.126,1.985,2.821,3.479c0.34,0.729,1.208,1.046,1.938,0.706c0.73-0.34,1.046-1.207,0.707-1.938
	c-0.014-0.028-0.028-0.057-0.041-0.085c2.216,0.644,4.972,1.182,7.987,1.182c0.494,0,0.995-0.014,1.501-0.046h21.394
	c7.809,0,14.162,6.345,14.162,14.144C71.72,24.936,70.89,27.66,69.32,29.992L69.32,29.992z M53.653,48.621
	c0.402-0.271,0.646-0.725,0.646-1.211v-6.619c0.506-0.179,1.012-0.38,1.521-0.606l1.234,6.745c-0.592,0.734-1.143,1.769-1.562,2.658
	h-2.497C53.267,49.113,53.507,48.753,53.653,48.621L53.653,48.621z M32.186,49.587h-1.87c0.265-2.171,0.896-6.208,2.215-9.566
	c0.798,0.303,1.618,0.572,2.46,0.81C33.068,44.185,32.41,47.689,32.186,49.587L32.186,49.587z M3.792,24.936
	c0,1.453-0.216,2.513-0.438,3.174c-0.221-0.661-0.437-1.721-0.437-3.174c0-1.452,0.215-2.51,0.437-3.172
	C3.576,22.426,3.792,23.484,3.792,24.936L3.792,24.936z M73.027,9.356c1.064-1.062,1.65-2.476,1.65-3.978
	c0-1.504-0.586-2.915-1.65-3.979c-1.869-1.866-4.911-1.866-6.781,0c-1.586,1.586-1.66,3.942-0.176,5.604
	c0.889,0.994,2.572,1.269,3.838,0.623c1.125-0.571,1.651-1.721,1.374-2.998c-0.171-0.787-0.946-1.287-1.734-1.116
	c-0.725,0.158-1.204,0.826-1.144,1.545c-0.07,0-0.141-0.011-0.188-0.03c-0.43-0.509-0.397-1.076,0.092-1.562
	c0.732-0.731,1.924-0.731,2.657,0c0.513,0.511,0.794,1.19,0.794,1.913c0,0.722-0.281,1.402-0.794,1.914
	c-0.886,0.883-2.143,1.267-3.372,1.029c-2.82-2.053-6.289-3.267-10.037-3.267H36.118c-0.031,0-0.062,0-0.091,0.003
	c-6.615,0.416-12.332-2.393-13.184-2.836c-1.84-1.327-3.993-2.062-6.107-1.961c-2.897,0.134-5.141,1.84-6.151,4.677
	c-0.16,0.448-0.089,0.947,0.188,1.336s0.723,0.617,1.204,0.611c0.025-0.002,0.049-0.002,0.074-0.002c0.976,0,1.799,0.23,2.494,0.593
	l-3.114,4.08c-1.993,2.611-4.606,4.752-7.56,6.19l-0.94,0.46c-0.697,0.139-1.65,0.688-2.289,2.48C0.227,21.846,0,23.354,0,24.936
	c0,1.584,0.227,3.093,0.641,4.25c0.679,1.905,1.712,2.403,2.416,2.503l13.579,4.448c1.164,0.382,2.078,0.62,3.308,0.707l1.661,0.117
	l0.434,4.353l-0.933,5.361c-0.889,0.97-1.717,2.722-2.177,3.799c-0.192,0.451-0.144,0.968,0.125,1.376
	c0.271,0.409,0.728,0.654,1.218,0.654h13.257c0.793,0,1.44-0.633,1.458-1.424c0.002-0.055,0.155-5.191,3-9.561
	c2.013,0.363,4.1,0.552,6.209,0.552c2.776,0,5.064-0.107,7.186-0.506v5.229c-0.85,0.99-1.631,2.646-2.071,3.68
	c-0.192,0.451-0.146,0.968,0.125,1.376c0.271,0.409,0.727,0.654,1.216,0.654h13.922c0.735,0,1.355-0.547,1.447-1.275
	c0.521-4.128,2.39-15.464,4.752-18.312c0.016-0.017,0.031-0.037,0.047-0.058l0.859-1.151c0.012-0.019,0.025-0.035,0.039-0.056
	c1.908-2.821,2.918-6.12,2.918-9.539c0-4.262-1.574-8.168-4.174-11.161C71.412,10.627,72.292,10.089,73.027,9.356L73.027,9.356z"/>
</svg>
