<?xml version="1.0" encoding="utf-8"?>
<!-- Generator: Adobe Illustrator 14.0.0, SVG Export Plug-In  -->
<!DOCTYPE svg PUBLIC "-//W3C//DTD SVG 1.1//EN" "http://www.w3.org/Graphics/SVG/1.1/DTD/svg11.dtd" [
	<!ENTITY ns_flows "http://ns.adobe.com/Flows/1.0/">
]>
<svg version="1.1"
	 xmlns="http://www.w3.org/2000/svg" xmlns:xlink="http://www.w3.org/1999/xlink" xmlns:a="http://ns.adobe.com/AdobeSVGViewerExtensions/3.0/"
	 x="0px" y="0px" width="100px" height="100px" viewBox="-6.239 -23.878 100 100" enable-background="new -6.239 -23.878 100 100"
	 xml:space="preserve">
<defs>
</defs>
<path fill="#4D4D4F" d="M39.932,20.705v-1.478h8.875v1.478c0,0.887-0.592,1.479-1.479,1.479H41.41
	C40.523,22.185,39.932,21.592,39.932,20.705L39.932,20.705z M25.143,14.494v-2.663h38.455v2.663c0,0.887-0.74,1.775-1.775,1.775
	H26.916C25.881,16.27,25.143,15.528,25.143,14.494L25.143,14.494z M51.764,48.807v1.479H36.975v-1.479
	c0-0.887,0.592-1.479,1.479-1.479h11.832C51.172,47.327,51.764,47.92,51.764,48.807L51.764,48.807z M47.328,25.143
	c2.514,0,4.436-1.924,4.436-4.438v-1.478h10.059c2.514,0,4.732-2.071,4.732-4.733v-4.142c0-0.889-0.592-1.48-1.48-1.48h-41.41
	c-0.889,0-1.48,0.592-1.48,1.48v4.142c0,2.514,2.072,4.733,4.732,4.733h10.059v1.478c0,2.514,1.922,4.438,4.436,4.438h1.48v19.227
	h-4.438c-2.514,0-4.436,1.922-4.436,4.438v2.957c0,0.889,0.59,1.48,1.479,1.48h17.748c0.887,0,1.479-0.592,1.479-1.48v-2.957
	c0-2.516-1.924-4.438-4.438-4.438h-4.438V25.143H47.328L47.328,25.143z"/>
<path fill="#4D4D4F" d="M2.957,26.622h16.27c0.889,0,1.479,0.592,1.479,1.478v1.479H2.957V26.622L2.957,26.622z M2.957,2.958h1.479
	c0.889,0,1.48,0.592,1.48,1.479v19.227H2.957V2.958L2.957,2.958z M19.227,23.663H8.873V4.437C8.873,1.923,6.951,0,4.436,0H1.479
	C0.592,0,0,0.591,0,1.478v50.286c0,0.889,0.592,1.48,1.479,1.48s1.479-0.592,1.479-1.48V32.539h17.748v19.225
	c0,0.889,0.592,1.48,1.479,1.48c0.889,0,1.48-0.592,1.48-1.48V28.1C23.664,25.586,21.74,23.663,19.227,23.663L19.227,23.663z"/>
<path fill="#4D4D4F" d="M68.033,28.1c0-0.886,0.592-1.478,1.479-1.478h16.27v2.957H68.033V28.1L68.033,28.1z M82.822,4.437
	c0-0.887,0.592-1.479,1.479-1.479h1.48v20.705h-2.959V4.437L82.822,4.437z M87.26,0h-2.959c-2.514,0-4.436,1.923-4.436,4.437v19.227
	H69.512c-2.514,0-4.438,1.923-4.438,4.437v23.664c0,0.889,0.592,1.48,1.48,1.48c0.887,0,1.479-0.592,1.479-1.48V32.539h17.748
	v19.225c0,0.889,0.592,1.48,1.479,1.48s1.48-0.592,1.48-1.48V1.478C88.74,0.591,88.146,0,87.26,0L87.26,0z"/>
</svg>
