<?xml version="1.0" encoding="utf-8"?>
<!-- Generator: Adobe Illustrator 14.0.0, SVG Export Plug-In  -->
<!DOCTYPE svg PUBLIC "-//W3C//DTD SVG 1.1//EN" "http://www.w3.org/Graphics/SVG/1.1/DTD/svg11.dtd" [
	<!ENTITY ns_flows "http://ns.adobe.com/Flows/1.0/">
]>
<svg version="1.1"
	 xmlns="http://www.w3.org/2000/svg" xmlns:xlink="http://www.w3.org/1999/xlink" xmlns:a="http://ns.adobe.com/AdobeSVGViewerExtensions/3.0/"
	 x="0px" y="0px" width="80px" height="80px" viewBox="-4.685 -12.856 80 80" enable-background="new -4.685 -12.856 80 80"
	 xml:space="preserve">
<defs>
</defs>
<path fill="#FFFFFF" d="M65.896,55.114h-4.793c-0.355,0-0.692-0.158-0.92-0.431c-0.227-0.273-0.323-0.633-0.258-0.981l2.283-12.561
	l-5.835-5.835c-1.587-1.583-2.461-3.695-2.46-5.941v-3.006h2.396v3.006c-0.002,1.605,0.623,3.113,1.756,4.243l6.279,6.281
	c0.279,0.278,0.402,0.673,0.332,1.062l-2.139,11.767h2.494l4.381-13.142l-1.658-4.146c-0.473-1.174-0.559-2.444-0.255-3.671
	l1.989-7.944v-3.446h2.396v3.595c0,0.098-0.012,0.196-0.035,0.291l-2.023,8.086c-0.183,0.731-0.129,1.493,0.153,2.198l1.823,4.554
	c0.104,0.263,0.112,0.555,0.023,0.825l-4.793,14.376C66.87,54.783,66.411,55.114,65.896,55.114L65.896,55.114z"/>
<path fill="#FFFFFF" d="M27.556,55.114h-4.792c-0.662,0-1.199-0.537-1.199-1.198V36.327l-7.457-10.47
	c-0.274-0.462-0.666-0.689-1.087-0.695H4.96c-1.68,0.022-3.383-0.874-4.293-2.372c-0.956-1.655-0.869-3.707,0.209-5.251l6.407-9.151
	H5.859C2.628,8.388,0,5.76,0,2.528V1.2c0-0.486,0.292-0.923,0.739-1.108c0.447-0.187,0.963-0.084,1.306,0.261L4.09,2.397h7.89
	c2.229,0,4.108,1.529,4.643,3.594h44.48c5.946,0,10.783,4.838,10.783,10.783v3.749h-2.396v-3.749c0-4.625-3.763-8.387-8.387-8.387
	H15.574c-0.661,0-1.197-0.538-1.197-1.199c0-1.321-1.074-2.396-2.397-2.396H3.594c-0.144,0-0.283-0.025-0.415-0.073
	c0.635,0.775,1.599,1.271,2.68,1.271h3.726c0.447,0,0.856,0.249,1.063,0.644c0.206,0.397,0.175,0.875-0.083,1.242L2.838,18.911
	c-0.545,0.784-0.589,1.826-0.112,2.655c0.455,0.749,1.316,1.238,2.21,1.199h8.1c1.276,0.014,2.453,0.701,3.087,1.797l7.617,10.686
	c0.145,0.204,0.222,0.447,0.222,0.695v16.774h2.625l3.392-15.827c0.118-0.552,0.606-0.947,1.171-0.947h28.755v2.397H32.12
	l-3.392,15.826C28.61,54.72,28.122,55.114,27.556,55.114L27.556,55.114z"/>
<path fill="#FFFFFF" d="M67.095,25.161c-2.645,0-4.793-2.149-4.793-4.792V19.17c0-1.322-1.074-2.396-2.396-2.396h-3.594v-2.396
	h3.594c2.643,0,4.791,2.148,4.791,4.791v1.199c0,1.319,1.075,2.396,2.398,2.396c1.32,0,2.395-1.077,2.395-2.396v-2.397h2.396v2.397
	C71.886,23.012,69.737,25.161,67.095,25.161L67.095,25.161z"/>
</svg>
