<?xml version="1.0" encoding="utf-8"?>
<!-- Generator: Adobe Illustrator 23.0.5, SVG Export Plug-In . SVG Version: 6.00 Build 0)  -->
<svg version="1.1" id="Layer_1" xmlns="http://www.w3.org/2000/svg" xmlns:xlink="http://www.w3.org/1999/xlink" x="0px" y="0px"
	 viewBox="0 0 30.5 19" style="enable-background:new 0 0 30.5 19;" xml:space="preserve">
<style type="text/css">
	.st0{fill:#FFFFFF;}
</style>
<g>
	<g>
		<g>
			<path class="st0" d="M30,1.9c0,1.1-0.9,1.9-2,1.9H2C0.9,3.8,0,3,0,1.9S0.9,0,2,0h26C29.1,0,30,0.9,30,1.9z"/>
		</g>
		<g>
			<path class="st0" d="M30,9.5c0,1.1-0.9,1.9-2,1.9H2c-1.1,0-2-0.9-2-1.9c0-1.1,0.9-1.9,2-1.9h26C29.1,7.6,30,8.4,30,9.5z"/>
		</g>
		<g>
			<path class="st0" d="M30,17.1c0,1.1-0.9,1.9-2,1.9H2c-1.1,0-2-0.9-2-1.9c0-1.1,0.9-1.9,2-1.9h26C29.1,15.1,30,16,30,17.1z"/>
		</g>
	</g>
</g>
</svg>
