<?xml version="1.0" encoding="utf-8"?>
<!-- Generator: Adobe Illustrator 14.0.0, SVG Export Plug-In  -->
<!DOCTYPE svg PUBLIC "-//W3C//DTD SVG 1.1//EN" "http://www.w3.org/Graphics/SVG/1.1/DTD/svg11.dtd" [
	<!ENTITY ns_flows "http://ns.adobe.com/Flows/1.0/">
]>
<svg version="1.1"
	 xmlns="http://www.w3.org/2000/svg" xmlns:xlink="http://www.w3.org/1999/xlink" xmlns:a="http://ns.adobe.com/AdobeSVGViewerExtensions/3.0/"
	 x="0px" y="0px" width="100px" height="100px" viewBox="-11.138 -11.5 100 100" enable-background="new -11.138 -11.5 100 100"
	 xml:space="preserve">
<defs>
</defs>
<path fill="#4D4D4F" d="M67.332,38.541c-0.846-0.034-1.555,0.627-1.586,1.472c-0.008,0.218-0.02,0.437-0.031,0.652
	c-0.053,0.844,0.588,1.568,1.432,1.621c0.033,0.001,0.064,0.003,0.096,0.003c0.801,0,1.475-0.625,1.525-1.435
	c0.014-0.243,0.027-0.485,0.035-0.728C68.834,39.282,68.176,38.572,67.332,38.541L67.332,38.541z"/>
<path fill="#4D4D4F" d="M39.001,74.941c-3.782,0-7.428-0.589-10.853-1.676l5.017-5.018c1.888,0.376,3.839,0.575,5.836,0.575
	c5.777,0,11.382-1.662,16.216-4.805c4.705-3.061,8.445-7.357,10.816-12.428c0.357-0.765,0.027-1.676-0.736-2.032
	c-0.768-0.358-1.676-0.027-2.035,0.737c-4.393,9.396-13.915,15.468-24.261,15.468c-1.071,0-2.126-0.063-3.164-0.188l37.429-37.426
	c1.088,3.424,1.676,7.069,1.676,10.851C74.941,58.816,58.818,74.941,39.001,74.941L39.001,74.941z M20.812,74.113
	c-0.597-0.596-0.597-1.566,0-2.162l20.113-20.112c1.223-1.223,1.852-2.912,1.723-4.637c-0.061-0.836,0.244-1.656,0.836-2.249
	l6.248-6.247c5.069-5.071,11.417-8.717,18.351-10.543l1.143-0.302l-46.25,46.252C22.378,74.711,21.407,74.709,20.812,74.113
	L20.812,74.113z M10.399,60.733l4.371-4.371c2.4,3.343,5.476,6.168,9.023,8.28l-4.438,4.437
	C15.917,66.825,12.886,63.998,10.399,60.733L10.399,60.733z M5.67,58.973c-0.289-0.289-0.446-0.672-0.446-1.08
	c0-0.409,0.157-0.793,0.446-1.082l28.176-28.175c1.992-1.993,3.034-4.747,2.86-7.559l-0.042-0.675
	c-0.12-1.938,0.598-3.835,1.97-5.206l10.611-10.61c0.045-0.045,0.084-0.094,0.123-0.142l0.293,0.229
	c0.954,0.296,1.894,0.633,2.813,1.007L41.612,16.545c-0.598,0.598-0.598,1.564,0,2.162c0.299,0.298,0.691,0.448,1.082,0.448
	s0.781-0.15,1.08-0.448L55.166,7.316c0.09-0.091,0.164-0.189,0.227-0.295c0.957,0.493,1.889,1.026,2.791,1.602l-0.855,0.855l0,0
	l-11.39,11.391c-0.598,0.598-0.598,1.567,0,2.164c0.299,0.298,0.689,0.448,1.08,0.448c0.393,0,0.785-0.15,1.082-0.448l12.636-12.636
	c4.68,3.566,8.461,8.253,10.945,13.655l-4.377,1.153c-7.459,1.963-14.283,5.883-19.735,11.337l-6.25,6.246
	c-1.221,1.225-1.85,2.914-1.723,4.639c0.062,0.836-0.243,1.654-0.836,2.248L26.034,62.402c-3.619-2.014-6.726-4.841-9.069-8.233
	l21.208-21.207c1.371-1.373,3.27-2.088,5.205-1.971l0.678,0.042c2.811,0.175,5.564-0.869,7.556-2.86l12.205-12.206
	c0.598-0.598,0.598-1.565,0-2.162c-0.598-0.598-1.564-0.598-2.162,0L49.448,26.009c-1.371,1.373-3.268,2.09-5.205,1.971
	l-0.676-0.042c-2.811-0.175-5.566,0.869-7.559,2.86L7.834,58.973C7.237,59.57,6.268,59.57,5.67,58.973L5.67,58.973z M33.611,20.591
	l0.041,0.675c0.12,1.938-0.598,3.835-1.97,5.206L12.96,45.194c-0.474-1.989-0.724-4.063-0.724-6.194
	c0-14.156,11.045-25.777,24.971-26.703l-0.735,0.735C34.479,15.023,33.437,17.779,33.611,20.591L33.611,20.591z M39.001,3.059
	c2.324,0,4.594,0.226,6.795,0.649l-5.348,5.348c-0.598,0.054-1.153,0.119-1.447,0.119C22.556,9.175,9.177,22.556,9.177,39
	c0,3.021,0.453,5.937,1.292,8.686l-4.785,4.786C3.993,48.309,3.06,43.763,3.06,39C3.06,19.182,19.182,3.059,39.001,3.059
	L39.001,3.059z M75.664,25.647c0.234-0.452,0.234-1.006-0.029-1.467c-0.191-0.328-0.488-0.563-0.828-0.682
	c-1.928-4.451-4.695-8.543-8.229-12.077C59.211,4.057,49.419,0,39.001,0S18.789,4.057,11.423,11.422C4.057,18.788,0,28.582,0,39
	c0,5.543,1.153,10.908,3.339,15.826c-0.76,0.844-1.175,1.922-1.175,3.066c0,1.226,0.478,2.377,1.344,3.244
	c0.894,0.894,2.069,1.342,3.244,1.342c0.341,0,0.682-0.04,1.016-0.114c1.108,1.475,2.327,2.884,3.655,4.212
	c1.891,1.891,3.942,3.558,6.12,4.999c-0.532,1.597-0.165,3.432,1.105,4.7c0.895,0.896,2.069,1.342,3.245,1.342
	c1.174,0,2.349-0.446,3.243-1.342l0.588-0.587C29.925,77.207,34.402,78,39.001,78c10.418,0,20.21-4.057,27.577-11.424
	C73.943,59.21,78,49.416,78,39C78,34.373,77.199,29.87,75.664,25.647L75.664,25.647z"/>
</svg>
