<?xml version="1.0" encoding="utf-8"?>
<!-- Generator: Adobe Illustrator 14.0.0, SVG Export Plug-In  -->
<!DOCTYPE svg PUBLIC "-//W3C//DTD SVG 1.1//EN" "http://www.w3.org/Graphics/SVG/1.1/DTD/svg11.dtd" [
	<!ENTITY ns_flows "http://ns.adobe.com/Flows/1.0/">
]>
<svg version="1.1"
	 xmlns="http://www.w3.org/2000/svg" xmlns:xlink="http://www.w3.org/1999/xlink" xmlns:a="http://ns.adobe.com/AdobeSVGViewerExtensions/3.0/"
	 x="0px" y="0px" width="80px" height="80px" viewBox="-13.02 -13.272 80 80" enable-background="new -13.02 -13.272 80 80"
	 xml:space="preserve">
<defs>
</defs>
<path fill="#FFFFFF" d="M3.2,13.561l3.127,1.34V12.22L3.2,13.561L3.2,13.561z M7.232,17.177c-0.122,0-0.242-0.023-0.356-0.072
	l-6.329-2.713C0.215,14.248,0,13.922,0,13.561s0.215-0.689,0.547-0.832l6.329-2.712c0.28-0.118,0.601-0.091,0.853,0.077
	c0.255,0.166,0.406,0.451,0.406,0.756v5.423c0,0.304-0.151,0.588-0.406,0.755C7.581,17.125,7.407,17.177,7.232,17.177L7.232,17.177z
	"/>
<path fill="#FFFFFF" d="M12.748,5.423h3.525c2.183,0,4.009-1.553,4.429-3.616h-3.525C14.994,1.807,13.167,3.363,12.748,5.423
	L12.748,5.423z M16.273,7.232h-4.521c-0.499,0-0.904-0.405-0.904-0.903C10.848,2.838,13.687,0,17.176,0h4.521
	c0.499,0,0.904,0.405,0.904,0.902C22.601,4.394,19.763,7.232,16.273,7.232L16.273,7.232z"/>
<polygon fill="#FFFFFF" points="23.506,46.106 25.313,46.106 25.313,53.339 23.506,53.339 23.506,46.106 "/>
<polygon fill="#FFFFFF" points="19.889,52.434 34.354,52.434 34.354,54.242 19.889,54.242 19.889,52.434 "/>
<polygon fill="#FFFFFF" points="28.93,46.106 30.737,46.106 30.737,53.339 28.93,53.339 28.93,46.106 "/>
<polygon fill="#FFFFFF" points="24.409,48.817 27.122,48.817 27.122,50.626 24.409,50.626 24.409,48.817 "/>
<polygon fill="#FFFFFF" points="29.834,48.817 32.545,48.817 32.545,50.626 29.834,50.626 29.834,48.817 "/>
<path fill="#FFFFFF" d="M6.327,17.832L2.944,19.77c-0.689,0.397-1.125,1.142-1.135,1.939v0.414c-0.006,0.611,0.225,1.18,0.647,1.611
	c0.424,0.429,0.989,0.67,1.594,0.676l0.018,0.903V24.41c1.248,0,2.26-1.015,2.26-2.261V17.832L6.327,17.832z M4.067,26.216H4.041
	c-1.094-0.008-2.112-0.44-2.874-1.215c-0.762-0.775-1.176-1.8-1.167-2.886v-0.418c0.02-1.444,0.803-2.779,2.043-3.495l4.74-2.713
	c0.28-0.161,0.625-0.159,0.903,0.001c0.279,0.163,0.45,0.461,0.45,0.782v5.877C8.135,24.396,6.312,26.216,4.067,26.216L4.067,26.216
	z"/>
<path fill="#FFFFFF" d="M13.869,7.22c-1.387,0-2.725,0.502-3.786,1.438c-1.152,1.017-1.839,2.419-1.935,3.952
	c-0.008,0.125-0.013,0.249-0.013,0.373v13.688C8.14,36.884,16.456,45.196,26.669,45.2c9.981,0,18.534-9.442,18.534-17.175V27.12
	h0.902c3.184,0,5.824-2.36,6.265-5.423h-6.265V19.89c3.184,0,5.824-2.361,6.265-5.427h-6.265v-1.807
	c3.184,0,5.824-2.362,6.265-5.424h-6.265h-0.002c-5.693,0-10.953,3.321-13.401,8.462l-5.58,11.72l-7.95-16.684
	c-0.901-1.982-2.793-3.318-4.946-3.502C14.106,7.222,13.986,7.22,13.869,7.22L13.869,7.22z M26.669,47.011
	c-11.21-0.006-20.334-9.132-20.342-20.34V12.982c0-0.162,0.005-0.326,0.016-0.488c0.127-2.012,1.03-3.857,2.543-5.193
	c1.514-1.335,3.452-2.002,5.472-1.875c2.825,0.24,5.289,1.979,6.453,4.542l6.31,13.243l3.949-8.295
	c2.744-5.767,8.646-9.493,15.033-9.493c0.002,0,0.002,0,0.002,0h8.137v0.906c0,2.552-1.183,4.834-3.027,6.327h3.027v0.904
	c0,2.554-1.183,4.836-3.027,6.329h3.027v0.903c0,4.191-3.184,7.653-7.261,8.09C46.409,37.298,37.564,47.011,26.669,47.011
	L26.669,47.011z"/>
<path fill="#FFFFFF" d="M30.683,41.585c-0.003,0-0.005,0-0.01,0h-3.551c-7.477,0-13.561-6.083-13.561-13.56V27.12h1.809v0.905
	c0,6.48,5.271,11.753,11.752,11.753h3.552c0.004,0,0.006,0,0.008,0c2.841,0,5.326-1.882,6.16-4.521h-2.534c-0.007,0-0.012,0-0.019,0
	l0.018-1.808c2.836-0.004,5.317-1.885,6.15-4.521H29.834v-1.81h12.793l-0.146,1.031c-0.334,2.357-1.662,4.377-3.521,5.654
	l-0.095,0.675C38.293,38.532,34.775,41.585,30.683,41.585L30.683,41.585z"/>
</svg>
