<?xml version="1.0" encoding="utf-8"?>
<!-- Generator: Adobe Illustrator 14.0.0, SVG Export Plug-In  -->
<!DOCTYPE svg PUBLIC "-//W3C//DTD SVG 1.1//EN" "http://www.w3.org/Graphics/SVG/1.1/DTD/svg11.dtd" [
	<!ENTITY ns_flows "http://ns.adobe.com/Flows/1.0/">
]>
<svg version="1.1"
	 xmlns="http://www.w3.org/2000/svg" xmlns:xlink="http://www.w3.org/1999/xlink" xmlns:a="http://ns.adobe.com/AdobeSVGViewerExtensions/3.0/"
	 x="0px" y="0px" width="80px" height="80px" viewBox="-12.422 -12.129 80 80" enable-background="new -12.422 -12.129 80 80"
	 xml:space="preserve">
<defs>
</defs>
<path fill="#FFFFFF" d="M46.388,37.909c0.216-0.689,0.332-1.422,0.332-2.183c0-1.103-0.239-2.158-0.71-3.147l-1.652,0.786
	c0.353,0.74,0.53,1.535,0.53,2.361c0,3.031-2.466,5.496-5.497,5.496s-5.497-2.465-5.497-5.496h-1.831
	c0,1.335,0.365,2.585,0.991,3.664h-0.075c0,4.355,0.698,8.656,2.075,12.786l0.638,1.916c0.024,0.068,0.035,0.142,0.035,0.211
	c0,0.365-0.297,0.66-0.661,0.66h-7.52c-0.307,0-0.591-0.151-0.763-0.407l-4.497-6.747c-1.395-2.093-2.132-4.528-2.132-7.045
	c0-1.263,1.025-2.29,2.289-2.29s2.291,1.027,2.291,2.29v1.374h1.831v-1.374c0-1.777-1.135-3.281-2.715-3.857
	c0.339-5.254,4.708-9.425,10.043-9.425c0.711,0,1.41,0.076,2.091,0.22c0.001,0.004,0.001,0.007,0.002,0.011l0.021-0.006
	c1.228,0.263,2.397,0.751,3.456,1.453l1.014-1.526c-0.899-0.597-1.869-1.059-2.883-1.392c-0.017-0.196-0.035-0.394-0.035-0.593
	c0-3.535,2.877-6.413,6.412-6.413c0.831,0,1.641,0.157,2.406,0.467l0.685-1.698c-0.795-0.322-1.629-0.508-2.485-0.57
	c1.326-1.465,2.143-3.399,2.143-5.526h-1.832c0,3.535-2.877,6.413-6.412,6.413c-2.213,0-4.252-1.152-5.423-3.014
	c0.535-1.016,0.841-2.173,0.841-3.399h-1.831c0,3.031-2.465,5.497-5.497,5.497c-1.478,0-2.858-0.577-3.897-1.624
	c0.151-0.66,0.234-1.344,0.234-2.039c0-3.505-1.95-6.65-5.089-8.209l-0.817,1.641c2.514,1.247,4.072,3.765,4.072,6.568
	c0,2.75-1.549,5.239-3.938,6.489c-1.575-2.777-4.555-4.659-7.969-4.659v1.833c4.04,0,7.328,3.286,7.328,7.328
	c0,3.771-2.801,6.926-6.513,7.334l-0.815,0.09v6.317H7.328v-1.399c0-1.854-0.459-3.635-0.954-5.278l-0.115-0.378l-0.354-0.177
	c-2.512-1.248-4.072-3.742-4.072-6.509c0-2.021,1.644-3.664,3.664-3.664s3.665,1.643,3.665,3.664h1.831
	c0-3.032-2.465-5.497-5.496-5.497c-0.168,0-0.334,0.012-0.499,0.027c-1.951-1.154-3.165-3.249-3.165-5.521
	c0-3.537,2.877-6.414,6.413-6.414c1.562,0,3.067,0.568,4.239,1.601l1.212-1.374C13.066,7,12.359,6.557,11.606,6.22
	c1.145-2.638,3.738-4.389,6.715-4.389c4.041,0,7.328,3.289,7.328,7.329h1.833c0-1.325-0.289-2.583-0.799-3.722
	c1.318-2.229,3.684-3.607,6.295-3.607c4.04,0,7.328,3.289,7.328,7.329h1.833c0-0.646-0.068-1.275-0.197-1.884
	c1.213-0.564,2.506-0.864,3.861-0.864c5.052,0,9.161,4.109,9.161,9.16c0,5.052-4.109,9.161-9.161,9.161v1.833
	c2.433,0,4.679-0.807,6.503-2.15c0.537,1.252,0.825,2.606,0.825,3.981C53.132,32.76,50.378,36.524,46.388,37.909L46.388,37.909z
	 M56.796,15.572c0-6.061-4.931-10.992-10.992-10.992c-1.546,0-3.026,0.329-4.42,0.945C39.973,2.277,36.738,0,32.979,0
	c-2.931,0-5.618,1.386-7.33,3.685C23.975,1.452,21.319,0,18.321,0c-3.785,0-7.08,2.263-8.47,5.658
	C9.325,5.554,8.788,5.495,8.245,5.495C3.697,5.495,0,9.194,0,13.742c0,2.401,1.06,4.642,2.826,6.19C1.144,20.873,0,22.672,0,24.733
	c0,3.333,1.802,6.346,4.728,7.96c0.412,1.406,0.769,2.896,0.769,4.382v3.232h5.496v-6.546c4.232-0.857,7.329-4.602,7.329-9.028
	c0-0.984-0.16-1.932-0.45-2.821c1.839-0.93,3.287-2.442,4.147-4.262c1.288,1.024,2.871,1.586,4.547,1.586
	c2.113,0,4.014-0.901,5.353-2.338c1.427,1.873,3.597,3.043,5.963,3.215c-1.333,1.464-2.154,3.403-2.154,5.536
	c0,0.049,0.009,0.097,0.01,0.145c-0.606-0.094-1.221-0.145-1.843-0.145c-6.27,0-11.413,4.876-11.863,11.035
	c-2.077,0.211-3.709,1.948-3.709,4.08c0,2.88,0.844,5.667,2.441,8.061l4.497,6.746c0.512,0.769,1.366,1.225,2.286,1.225h7.52
	c1.376,0,2.494-1.118,2.494-2.492c0-0.267-0.045-0.53-0.129-0.788l-0.64-1.919c-1.093-3.277-1.73-6.671-1.917-10.111
	c1.246,0.979,2.813,1.569,4.517,1.569c2.403,0,4.535-1.167,5.871-2.961c5.635-1.055,9.703-5.933,9.703-11.696
	c0-1.82-0.44-3.606-1.235-5.226C55.625,21.194,56.796,18.521,56.796,15.572L56.796,15.572z"/>
<polygon fill="#FFFFFF" points="33.894,30.23 35.727,30.23 35.727,32.062 33.894,32.062 33.894,30.23 "/>
<polygon fill="#FFFFFF" points="51.301,14.656 53.132,14.656 53.132,16.488 51.301,16.488 51.301,14.656 "/>
<polygon fill="#FFFFFF" points="25.649,13.742 27.482,13.742 27.482,15.572 25.649,15.572 25.649,13.742 "/>
<polygon fill="#FFFFFF" points="16.489,9.16 18.321,9.16 18.321,10.992 16.489,10.992 16.489,9.16 "/>
<polygon fill="#FFFFFF" points="5.496,15.572 7.328,15.572 7.328,17.405 5.496,17.405 5.496,15.572 "/>
<polygon fill="#FFFFFF" points="10.992,27.482 12.825,27.482 12.825,29.313 10.992,29.313 10.992,27.482 "/>
<polygon fill="#FFFFFF" points="24.734,43.971 26.565,43.971 26.565,45.803 24.734,45.803 24.734,43.971 "/>
</svg>
