<?xml version="1.0" encoding="utf-8"?>
<!-- Generator: Adobe Illustrator 14.0.0, SVG Export Plug-In  -->
<!DOCTYPE svg PUBLIC "-//W3C//DTD SVG 1.1//EN" "http://www.w3.org/Graphics/SVG/1.1/DTD/svg11.dtd" [
	<!ENTITY ns_flows "http://ns.adobe.com/Flows/1.0/">
]>
<svg version="1.1"
	 xmlns="http://www.w3.org/2000/svg" xmlns:xlink="http://www.w3.org/1999/xlink" xmlns:a="http://ns.adobe.com/AdobeSVGViewerExtensions/3.0/"
	 x="0px" y="0px" width="80px" height="80px" viewBox="-6.689 -13.188 80 80" enable-background="new -6.689 -13.188 80 80"
	 xml:space="preserve">
<defs>
</defs>
<path fill="#FFFFFF" d="M65.3,29.694c0,7.307-5.946,13.251-13.255,13.251c-7.188,0-12.172,2.079-16.99,4.089
	c-4.176,1.742-8.117,3.387-13.153,3.387c-10.196,0-18.564-7.969-19.205-18.007c3.727,6.778,10.938,11.383,19.205,11.383
	c5.565,0,9.748-1.743,14.175-3.591c4.579-1.91,9.311-3.884,15.969-3.884c0.497,0,0.996-0.024,1.488-0.07
	c0.729-0.066,1.265-0.715,1.196-1.444c-0.069-0.73-0.716-1.266-1.445-1.197c-0.409,0.037-0.824,0.057-1.239,0.057
	c-7.188,0-12.172,2.079-16.99,4.091c-4.176,1.741-8.117,3.385-13.153,3.385c-10.612,0-19.247-8.633-19.247-19.244
	c0-10.61,8.635-19.245,19.247-19.245c4.552,0,16.254,0.307,26.573,3.142C59.636,8.86,65.3,13.779,65.3,20.415
	c0,3.624-1.527,7.137-4.186,9.639c-0.534,0.504-0.561,1.345-0.057,1.878c0.503,0.534,1.342,0.56,1.876,0.057
	c0.9-0.848,1.691-1.792,2.366-2.809V29.694L65.3,29.694L65.3,29.694z M62.175,9.243c-3.098-2.47-7.473-4.492-13-6.01
	C38.548,0.314,26.56,0,21.901,0C9.826,0,0,9.823,0,21.898v9.277c0,12.076,9.826,21.899,21.901,21.899
	c5.565,0,9.748-1.744,14.175-3.59c4.579-1.91,9.311-3.884,15.969-3.884c8.772,0,15.909-7.137,15.909-15.907v-9.279
	C67.954,16.059,66.01,12.299,62.175,9.243L62.175,9.243z"/>
<path fill="#FFFFFF" d="M58.201,32.143c-0.013,0.004-0.022,0.012-0.031,0.016c-0.657,0.328-0.922,1.125-0.595,1.781
	c0.231,0.465,0.701,0.732,1.188,0.732c0.198,0,0.397-0.044,0.585-0.135c0.65-0.319,0.929-1.102,0.619-1.758
	C59.653,32.115,58.862,31.83,58.201,32.143L58.201,32.143z"/>
<path fill="#FFFFFF" d="M31.2,8.323l0.068,0.006c0.037,0.002,0.071,0.005,0.107,0.005c0.686,0,1.265-0.527,1.323-1.223
	c0.057-0.73-0.488-1.37-1.219-1.428l-0.069-0.008c-0.73-0.056-1.37,0.488-1.427,1.22C29.927,7.625,30.47,8.266,31.2,8.323
	L31.2,8.323z"/>
<path fill="#FFFFFF" d="M62.644,20.415c0-1.303-0.27-2.473-0.827-3.576c-1.317-2.601-4.246-4.849-8.706-6.682
	c-3.611-1.483-7.556-2.419-10.233-2.944c-1.604-0.313-3.284-0.595-4.995-0.834c-0.724-0.103-1.396,0.404-1.498,1.13
	s0.405,1.396,1.132,1.499c1.662,0.231,3.294,0.504,4.851,0.811c9.116,1.787,15.342,4.784,17.08,8.22
	c0.366,0.722,0.543,1.499,0.543,2.377c0,4.38-3.562,7.943-7.944,7.943c-4.427,0-8.727,0.724-13.146,2.213
	c-1.903,0.642-3.751,1.408-5.538,2.149c-1.181,0.491-2.404,0.997-3.616,1.458c-3.062,1.161-5.407,1.655-7.844,1.655
	c-7.686,0-13.937-6.252-13.937-13.936S14.216,7.963,21.901,7.963c1.497,0,3.021,0.027,4.522,0.084
	c0.253,0.01,0.51,0.019,0.765,0.031c0.732,0.033,1.354-0.535,1.384-1.268c0.032-0.732-0.534-1.352-1.267-1.384
	c-0.264-0.012-0.522-0.024-0.784-0.033c-1.535-0.057-3.09-0.085-4.62-0.085c-9.15,0-16.59,7.441-16.59,16.59
	c0,9.147,7.439,16.59,16.59,16.59c2.777,0,5.404-0.547,8.784-1.827c1.253-0.475,2.494-0.99,3.694-1.489
	c1.744-0.723,3.551-1.473,5.367-2.085c4.14-1.395,8.163-2.074,12.298-2.074C57.891,31.013,62.644,26.26,62.644,20.415L62.644,20.415
	z"/>
<path fill="#FFFFFF" d="M23.173,20.137c-2.249,0-4.075-1.546-4.075-3.447c0-1.9,1.826-3.446,4.075-3.446
	c2.244,0,4.073,1.546,4.073,3.446C27.246,18.591,25.417,20.137,23.173,20.137L23.173,20.137z M23.173,10.587
	c-3.712,0-6.731,2.738-6.731,6.103s3.02,6.103,6.731,6.103c3.708,0,6.728-2.738,6.728-6.103S26.881,10.587,23.173,10.587
	L23.173,10.587z"/>
</svg>
