<?xml version="1.0" encoding="utf-8"?>
<!-- Generator: Adobe Illustrator 14.0.0, SVG Export Plug-In  -->
<!DOCTYPE svg PUBLIC "-//W3C//DTD SVG 1.1//EN" "http://www.w3.org/Graphics/SVG/1.1/DTD/svg11.dtd" [
	<!ENTITY ns_flows "http://ns.adobe.com/Flows/1.0/">
]>
<svg version="1.1"
	 xmlns="http://www.w3.org/2000/svg" xmlns:xlink="http://www.w3.org/1999/xlink" xmlns:a="http://ns.adobe.com/AdobeSVGViewerExtensions/3.0/"
	 x="0px" y="0px" width="100px" height="100px" viewBox="-18.507 -18.711 100 100" enable-background="new -18.507 -18.711 100 100"
	 xml:space="preserve">
<defs>
</defs>
<path fill="#4D4D4F" d="M32.018,2.5c0.328,0,0.65-0.133,0.883-0.367c0.232-0.231,0.367-0.554,0.367-0.883S33.133,0.599,32.9,0.367
	C32.668,0.133,32.346,0,32.018,0c-0.33,0-0.652,0.133-0.885,0.367c-0.234,0.231-0.365,0.554-0.365,0.883s0.131,0.651,0.365,0.883
	C31.365,2.367,31.688,2.5,32.018,2.5L32.018,2.5z"/>
<path fill="#4D4D4F" d="M61.5,61.5h-6.75V56c0-0.689-0.561-1.25-1.25-1.25h-2.75v-3.517h3.98c0.689,0,1.25-0.559,1.25-1.25
	c0-0.689-0.561-1.25-1.25-1.25h-3.98v-3.494h3.98c0.689,0,1.25-0.56,1.25-1.25c0-0.689-0.561-1.25-1.25-1.25h-3.98v-3.495h3.98
	c0.689,0,1.25-0.559,1.25-1.25c0-0.689-0.561-1.25-1.25-1.25h-3.98V33.25h3.98c0.689,0,1.25-0.561,1.25-1.25s-0.561-1.25-1.25-1.25
	h-3.98V20.513L61.5,31.269V61.5L61.5,61.5z M11.75,61.5v-4.25H49.5h2.75v4.25H11.75L11.75,61.5z M15.75,45.25h9.168v9.5H15.75V45.25
	L15.75,45.25z M24.918,9.25v9.5H15.75v-9.5H24.918L24.918,9.25z M48.25,9.25v9.5h-9.166v-9.5H48.25L48.25,9.25z M39.084,45.25h9.166
	v9.5h-9.166V45.25L39.084,45.25z M27.418,33.25h9.166v9.5h-9.166V33.25L27.418,33.25z M15.75,33.25h9.168v9.5H15.75V33.25
	L15.75,33.25z M24.918,30.75H15.75v-9.5h9.168V30.75L24.918,30.75L24.918,30.75z M48.25,30.75h-9.166v-9.5h9.166V30.75L48.25,30.75z
	 M48.25,42.75h-9.166v-9.5h9.166V42.75L48.25,42.75z M27.418,18.75v-9.5h9.166v9.5H27.418L27.418,18.75z M36.584,21.25v9.5h-9.166
	v-9.5H36.584L36.584,21.25z M27.418,54.75v-9.5h9.166v9.5H27.418L27.418,54.75z M63.635,29.867L50.75,16.976V9.25
	c0-1.379-1.121-2.5-2.5-2.5h-2.5v-5.5C45.75,0.561,45.189,0,44.5,0h-7.791c-0.689,0-1.25,0.561-1.25,1.25s0.561,1.25,1.25,1.25
	h6.541v4.25h-22.5V2.5h6.584c0.689,0,1.25-0.561,1.25-1.25S28.023,0,27.334,0H19.5c-0.689,0-1.25,0.561-1.25,1.25v5.5h-2.5
	c-1.379,0-2.5,1.121-2.5,2.5v45.5H10.5c-0.689,0-1.25,0.561-1.25,1.25v5.5H2.5V33.25h8c0.689,0,1.25-0.561,1.25-1.25
	s-0.561-1.25-1.25-1.25H1.25C0.561,30.75,0,31.311,0,32v30.75C0,63.439,0.561,64,1.25,64h61.5c0.689,0,1.25-0.561,1.25-1.25v-32
	C64,30.419,63.869,30.101,63.635,29.867L63.635,29.867z"/>
<path fill="#4D4D4F" d="M7.875,49.708c-0.328,0-0.65,0.134-0.883,0.367c-0.234,0.232-0.367,0.555-0.367,0.883
	c0,0.33,0.133,0.652,0.367,0.885c0.232,0.232,0.555,0.365,0.883,0.365c0.33,0,0.652-0.133,0.883-0.365
	c0.232-0.232,0.367-0.555,0.367-0.885c0-0.328-0.133-0.65-0.367-0.883C8.527,49.842,8.205,49.708,7.875,49.708L7.875,49.708z"/>
<path fill="#4D4D4F" d="M9.125,37.342c0-0.691-0.561-1.25-1.25-1.25s-1.25,0.559-1.25,1.25v8.908c0,0.689,0.561,1.25,1.25,1.25
	s1.25-0.561,1.25-1.25V37.342L9.125,37.342z"/>
</svg>
