<?xml version="1.0" encoding="utf-8"?>
<!-- Generator: Adobe Illustrator 14.0.0, SVG Export Plug-In  -->
<!DOCTYPE svg PUBLIC "-//W3C//DTD SVG 1.1//EN" "http://www.w3.org/Graphics/SVG/1.1/DTD/svg11.dtd" [
	<!ENTITY ns_flows "http://ns.adobe.com/Flows/1.0/">
]>
<svg version="1.1"
	 xmlns="http://www.w3.org/2000/svg" xmlns:xlink="http://www.w3.org/1999/xlink" xmlns:a="http://ns.adobe.com/AdobeSVGViewerExtensions/3.0/"
	 x="0px" y="0px" width="100px" height="100px" viewBox="-0.447 -19.402 100 100" enable-background="new -0.447 -19.402 100 100"
	 xml:space="preserve">
<defs>
</defs>
<path fill="#4D4D4F" d="M84.682,57.328c-2.302,0-4.429-0.758-6.146-2.038c0.199-0.004,0.373,0.016,0.535,0.063
	c0.007,0.002,0.016,0.004,0.023,0.006c0.988,0.27,2.05,0.271,3.067,0.006c0.554-0.134,1.045-0.364,1.454-0.57
	c0.02-0.01,0.037-0.021,0.057-0.031c0.466-0.265,0.903-0.578,1.298-0.934c0.006-0.005,0.013-0.013,0.021-0.019
	c0.822-0.77,1.434-1.688,1.764-2.646c0.085-0.238,0.157-0.48,0.215-0.721c0.003-0.015,0.007-0.029,0.011-0.044
	c0.049-0.238,0.085-0.491,0.109-0.758c0.022-0.25,0.029-0.501,0.022-0.746c0-0.012,0-0.022-0.001-0.032
	c-0.013-0.242-0.041-0.497-0.09-0.764c-0.035-0.189-0.036-0.395-0.007-0.646c0.012-0.082,0.032-0.162,0.057-0.237
	c0.004-0.006,0.005-0.013,0.007-0.02c0.034-0.106,0.071-0.212,0.104-0.28c0.003-0.006,0.008-0.013,0.011-0.02
	c0.03-0.062,0.079-0.142,0.149-0.238c0.008-0.012,0.016-0.024,0.024-0.036c0.046-0.066,0.097-0.131,0.154-0.19
	c0.176-0.17,0.348-0.298,0.522-0.387c0.22-0.113,0.438-0.243,0.647-0.383c0.013-0.008,0.024-0.018,0.036-0.024
	c0.196-0.142,0.393-0.302,0.584-0.478c0.184-0.167,0.36-0.348,0.528-0.537c0.009-0.012,0.018-0.022,0.027-0.033
	c0.15-0.182,0.297-0.385,0.458-0.631c0.122-0.192,0.264-0.423,0.39-0.687c0.005-0.008,0.008-0.017,0.012-0.025
	c0.102-0.223,0.195-0.455,0.277-0.693c0.21-0.569,0.292-1.146,0.341-1.597c0.062-0.599,0.01-1.171-0.041-1.603
	c-0.004-0.027-0.008-0.056-0.013-0.083c-0.097-0.533-0.238-1.033-0.425-1.488c-0.007-0.016-0.015-0.03-0.021-0.047
	c-0.229-0.504-0.481-0.934-0.771-1.311c-0.007-0.011-0.015-0.02-0.022-0.027c-0.32-0.399-0.68-0.754-1.067-1.055
	c-0.006-0.006-0.014-0.011-0.021-0.016c-0.178-0.132-0.322-0.279-0.423-0.433c-0.139-0.207-0.223-0.374-0.258-0.51
	c-0.002-0.009-0.005-0.018-0.007-0.027c-0.067-0.235-0.094-0.416-0.086-0.581c0.011-0.219,0.044-0.386,0.113-0.546
	c0.185-0.433,0.326-0.889,0.418-1.349c0.089-0.436,0.126-0.902,0.114-1.442c-0.015-0.494-0.077-0.969-0.184-1.413
	c-0.001-0.006-0.003-0.014-0.005-0.021c-0.117-0.458-0.28-0.908-0.484-1.342c-0.109-0.232-0.222-0.441-0.34-0.641
	c-0.007-0.009-0.012-0.017-0.018-0.026c-0.043-0.067-0.089-0.134-0.133-0.2c4.729,5.683,7.3,12.762,7.3,20.251
	C94.974,52.718,90.356,57.328,84.682,57.328L84.682,57.328z M69.989,30.137c0.1-0.217,0.183-0.441,0.245-0.675l0.614-2.29
	c4.876,0.856,8.491,5.119,8.491,10.12c0,3.601-1.917,6.944-4.964,8.794C74.221,40.405,72.706,34.969,69.989,30.137L69.989,30.137z
	 M61.939,20.473l6.019-1.611c0.698-0.187,1.171,0.189,1.341,0.36c0.169,0.169,0.543,0.639,0.356,1.333l-1.71,6.374
	c-1.166-1.622-2.48-3.156-3.939-4.586C63.338,21.688,62.648,21.065,61.939,20.473L61.939,20.473z M39.024,12.442
	c-1.086,0.021-2.163,0.095-3.23,0.217l1.679-2.189c0.233-0.304,0.745-0.5,1.305-0.5c0.559,0,1.07,0.196,1.304,0.5l1.547,2.017
	C40.766,12.44,39.897,12.425,39.024,12.442L39.024,12.442z M2.865,40.199c0-2.986,1.312-5.802,3.521-7.734L6.48,33.18
	c0.093,0.705,0.392,1.325,0.847,1.798c-1.386,3.672-2.148,7.585-2.238,11.6C3.667,44.79,2.865,42.559,2.865,40.199L2.865,40.199z
	 M8.976,24.644c0.395-0.395,0.896-0.617,1.277-0.567l3.296,0.437c-1.743,2.024-3.235,4.219-4.458,6.544l-0.682-5.142
	C8.358,25.537,8.581,25.038,8.976,24.644L8.976,24.644z M24.883,13.154c1.495,0,2.947,0.32,4.282,0.933
	c-4.878,1.57-9.368,4.233-13.174,7.857l-1.265-0.169C15.525,16.875,19.823,13.154,24.883,13.154L24.883,13.154z M45.576,12.924
	l-0.891-1.161c1.753-1.26,3.82-1.926,5.992-1.926c4.841,0,8.984,3.334,10.037,7.995l-1.672,0.449
	c-0.005,0.001-0.01,0.002-0.015,0.005C54.969,15.557,50.403,13.736,45.576,12.924L45.576,12.924z M28.914,9.794
	c0.011,0.002,0.021,0.005,0.031,0.008c2.178,0.492,4.311-0.652,5.073-2.713c0.188-0.496,0.484-0.947,0.885-1.342
	c0.455-0.417,0.941-0.711,1.441-0.873c0.016-0.006,0.031-0.011,0.046-0.016c0.501-0.182,1.081-0.25,1.683-0.199
	c0.535,0.058,1.063,0.235,1.515,0.507c1.861,1.157,4.251,0.766,5.69-0.944c0.178-0.216,0.371-0.406,0.574-0.568
	c0.216-0.16,0.455-0.303,0.71-0.421c0.126-0.06,0.259-0.115,0.393-0.162c0.131-0.044,0.279-0.077,0.388-0.101
	c0.287-0.061,0.585-0.096,0.885-0.103c0.3,0.007,0.596,0.042,0.876,0.1c0.17,0.037,0.294,0.069,0.395,0.104
	c0.134,0.047,0.268,0.103,0.394,0.162c0.255,0.118,0.492,0.261,0.709,0.421c0.203,0.161,0.396,0.353,0.585,0.581
	c1.429,1.697,3.817,2.089,5.665,0.941c0.466-0.281,0.994-0.459,1.53-0.517c0.6-0.051,1.181,0.018,1.681,0.199
	c0.017,0.005,0.031,0.01,0.047,0.015c0.502,0.163,0.987,0.457,1.442,0.874c0.399,0.393,0.696,0.845,0.88,1.333
	c0.767,2.069,2.902,3.213,5.076,2.721c0.011-0.002,0.021-0.005,0.031-0.007c1.039-0.26,2.185-0.015,3.145,0.675
	c0.502,0.388,0.878,0.81,1.123,1.269c0.139,0.254,0.247,0.504,0.32,0.745c0.074,0.265,0.121,0.537,0.14,0.818
	c0.169,2.207,1.951,3.93,4.14,4.007c0.533,0.021,1.059,0.158,1.565,0.409c0.243,0.13,0.479,0.286,0.698,0.463
	c0.12,0.098,0.222,0.189,0.311,0.277c0.099,0.104,0.195,0.216,0.283,0.327c0.188,0.238,0.348,0.483,0.473,0.724
	c0.122,0.258,0.22,0.523,0.295,0.809c0.126,0.46,0.146,0.988,0.058,1.531c-0.107,0.348-0.952,2.665-4.463,4.061
	c-1.228-0.71-2.585-1.229-4.031-1.512l0.831-3.1c0.397-1.482-0.013-3.016-1.099-4.103c-1.087-1.087-2.623-1.499-4.109-1.102
	l-3.732,0.999C62.099,11.184,56.829,6.97,50.678,6.97c-2.806,0-5.479,0.872-7.737,2.518l-0.585-0.763
	c-0.778-1.015-2.116-1.621-3.578-1.621c-1.463,0-2.8,0.606-3.579,1.621l-2.938,3.829c-1.882-1.278-4.033-2.035-6.291-2.221
	C26.888,9.749,27.946,9.552,28.914,9.794L28.914,9.794z M84.425,27.457c0.045,0.034,0.089,0.07,0.132,0.106
	c0.207,0.181,0.402,0.387,0.574,0.61c0.086,0.11,0.168,0.228,0.244,0.345c0.067,0.112,0.131,0.235,0.195,0.373
	c0.125,0.265,0.226,0.54,0.298,0.819c0.06,0.249,0.093,0.524,0.104,0.807c0.005,0.315-0.013,0.568-0.06,0.801
	c-0.055,0.272-0.137,0.538-0.243,0.785c-0.205,0.477-0.317,0.984-0.341,1.536c-0.026,0.471,0.034,0.944,0.187,1.488
	c0.117,0.441,0.326,0.887,0.635,1.351c0.279,0.424,0.645,0.809,1.09,1.141c0.202,0.158,0.394,0.347,0.568,0.562
	c0.147,0.196,0.284,0.432,0.416,0.72c0.1,0.248,0.18,0.531,0.238,0.839c0.034,0.293,0.062,0.627,0.032,0.918
	c-0.032,0.297-0.08,0.638-0.184,0.916c-0.004,0.011-0.008,0.021-0.011,0.031c-0.053,0.151-0.112,0.302-0.177,0.444
	c-0.059,0.123-0.143,0.257-0.209,0.362c-0.088,0.134-0.169,0.246-0.244,0.339c-0.094,0.107-0.192,0.207-0.293,0.299
	c-0.103,0.094-0.202,0.176-0.301,0.247c-0.11,0.073-0.226,0.141-0.344,0.2c-0.438,0.229-0.84,0.521-1.227,0.9
	c-0.006,0.006-0.012,0.011-0.018,0.017c-0.181,0.184-0.345,0.384-0.489,0.596c-0.157,0.222-0.277,0.42-0.377,0.623
	c-0.119,0.235-0.199,0.46-0.268,0.671c-0.082,0.245-0.143,0.501-0.18,0.761c-0.002,0.009-0.003,0.018-0.004,0.026
	c-0.067,0.546-0.057,1.044,0.028,1.521c0.025,0.137,0.042,0.267,0.047,0.383c0.005,0.132,0,0.266-0.012,0.396
	c-0.013,0.146-0.031,0.281-0.057,0.404c-0.034,0.137-0.076,0.274-0.129,0.423c-0.182,0.527-0.53,1.043-1.007,1.493
	c-0.229,0.205-0.482,0.388-0.754,0.543c-0.268,0.135-0.55,0.267-0.808,0.328c-0.011,0.002-0.021,0.006-0.031,0.007
	c-0.536,0.142-1.088,0.145-1.594,0.008c-0.483-0.139-0.982-0.193-1.526-0.167c-0.604,0.017-1.118,0.177-1.455,0.299
	c-0.008,0.002-0.017,0.006-0.024,0.008c-0.193,0.074-0.38,0.159-0.559,0.255c-0.799-1.119-1.376-2.402-1.674-3.789
	c0.009-0.004,0.016-0.006,0.023-0.01c4.596-2.159,7.565-6.831,7.565-11.899c0-3.671-1.525-7.029-4.003-9.434
	c0.772-0.426,1.419-0.891,1.963-1.362c0.621-0.089,1.275-0.09,2.001,0C82.937,26.591,83.737,26.933,84.425,27.457L84.425,27.457z
	 M87.526,22.412c-0.564-0.555-1.471-0.549-2.026,0.016c-0.556,0.562-0.549,1.471,0.015,2.025c0.306,0.302,0.604,0.609,0.896,0.922
	c-0.081-0.068-0.165-0.134-0.248-0.198c-1.083-0.827-2.376-1.368-3.641-1.524c-0.031-0.005-0.061-0.007-0.091-0.011
	c0.323-0.642,0.437-1.084,0.45-1.138c0.006-0.029,0.013-0.059,0.018-0.088c0.175-0.983,0.139-1.971-0.1-2.84
	c-0.118-0.452-0.282-0.898-0.488-1.327c-0.006-0.01-0.01-0.021-0.016-0.031c-0.211-0.411-0.474-0.817-0.783-1.211
	c-0.148-0.188-0.307-0.37-0.472-0.542c-0.007-0.007-0.015-0.016-0.021-0.021c-0.162-0.162-0.339-0.321-0.543-0.487
	c-0.369-0.3-0.767-0.562-1.18-0.78c-0.01-0.006-0.021-0.011-0.029-0.016c-0.877-0.438-1.801-0.68-2.753-0.718
	c-0.747-0.026-1.332-0.598-1.389-1.347c-0.032-0.473-0.115-0.945-0.244-1.407c-0.004-0.006-0.005-0.014-0.008-0.021
	c-0.131-0.438-0.318-0.879-0.549-1.296c-0.432-0.81-1.076-1.547-1.912-2.189c-0.011-0.008-0.021-0.016-0.032-0.024
	c-1.646-1.19-3.656-1.609-5.52-1.147c-0.762,0.166-1.478-0.213-1.744-0.934c-0.339-0.897-0.87-1.702-1.578-2.396
	c-0.011-0.008-0.02-0.018-0.029-0.027c-0.76-0.7-1.599-1.205-2.494-1.499c-0.898-0.321-1.874-0.439-2.896-0.351
	c-0.008,0-0.016,0.001-0.023,0.003c-0.955,0.1-1.898,0.415-2.741,0.924c-0.652,0.405-1.465,0.264-1.964-0.329
	c-0.314-0.382-0.663-0.723-1.035-1.015c-0.008-0.006-0.016-0.012-0.023-0.019c-0.376-0.281-0.787-0.527-1.224-0.732
	c-0.214-0.101-0.438-0.191-0.663-0.272c-0.008-0.002-0.016-0.005-0.024-0.008c-0.267-0.09-0.522-0.148-0.723-0.192
	c-0.469-0.099-0.954-0.153-1.442-0.162c-0.02-0.001-0.039-0.001-0.06,0c-0.486,0.01-0.972,0.063-1.448,0.164
	c-0.194,0.042-0.45,0.101-0.718,0.191c-0.007,0.002-0.016,0.005-0.022,0.007c-0.227,0.081-0.449,0.172-0.663,0.273
	c-0.436,0.204-0.848,0.45-1.224,0.731c-0.008,0.007-0.016,0.013-0.023,0.02c-0.373,0.291-0.721,0.633-1.022,1.002
	c-0.511,0.606-1.324,0.746-1.991,0.332c-0.828-0.499-1.771-0.815-2.727-0.915c-0.009,0-0.016-0.002-0.024-0.003
	c-1.021-0.088-1.995,0.029-2.896,0.352c-0.895,0.294-1.733,0.798-2.493,1.499c-0.01,0.009-0.02,0.019-0.029,0.028
	c-0.71,0.691-1.239,1.497-1.581,2.402c-0.264,0.713-0.979,1.091-1.741,0.925c-1.864-0.461-3.874-0.043-5.519,1.149
	c-0.012,0.008-0.022,0.016-0.032,0.023c-0.837,0.644-1.48,1.379-1.914,2.189c-0.04,0.076-0.072,0.156-0.098,0.235
	c-5.201,1.164-9.308,5.434-10.146,10.794l-1.256-0.166c-1.271-0.168-2.646,0.35-3.681,1.383c-1.033,1.034-1.549,2.407-1.382,3.674
	l0.387,2.913C2.262,31.621,0,35.762,0,40.199c0,4.309,2.081,8.286,5.594,10.752c1.557,5.334,6.491,9.243,12.327,9.243h54.721
	c0.793,0,1.435-0.642,1.435-1.434c0-0.791-0.642-1.433-1.435-1.433H17.921c-5.499,0-9.975-4.468-9.975-9.96
	c0-17.334,13.968-31.716,31.136-32.06c8.623-0.173,16.767,3.053,22.917,9.081c6.143,6.021,9.524,14.067,9.524,22.661
	c0,3.37,1.277,6.447,3.373,8.775c0.057,0.077,0.122,0.15,0.196,0.216c0.006,0.005,0.013,0.01,0.019,0.015
	c2.399,2.545,5.802,4.137,9.57,4.137c7.256,0,13.158-5.896,13.158-13.143C97.84,37.719,94.176,28.968,87.526,22.412L87.526,22.412z"
	/>
<path fill="#4D4D4F" d="M26.579,28.473c0.791,0,1.433,0.642,1.433,1.434s-0.642,1.434-1.433,1.434c-0.792,0-1.434-0.642-1.434-1.434
	S25.787,28.473,26.579,28.473L26.579,28.473z"/>
<path fill="#4D4D4F" d="M19.699,34.206c0.791,0,1.434,0.642,1.434,1.433c0,0.792-0.643,1.434-1.434,1.434
	c-0.792,0-1.434-0.642-1.434-1.434C18.266,34.848,18.907,34.206,19.699,34.206L19.699,34.206z"/>
<path fill="#4D4D4F" d="M31.165,38.792c0.791,0,1.433,0.642,1.433,1.434c0,0.791-0.642,1.433-1.433,1.433
	c-0.792,0-1.434-0.642-1.434-1.433C29.731,39.434,30.373,38.792,31.165,38.792L31.165,38.792z"/>
<path fill="#4D4D4F" d="M19.891,27.325c0.791,0,1.433,0.643,1.433,1.435c0,0.791-0.642,1.434-1.433,1.434
	c-0.792,0-1.434-0.643-1.434-1.434C18.457,27.968,19.099,27.325,19.891,27.325L19.891,27.325z"/>
<path fill="#4D4D4F" d="M37.089,21.594c0.791,0,1.433,0.642,1.433,1.434c0,0.791-0.642,1.433-1.433,1.433
	c-0.792,0-1.434-0.642-1.434-1.433C35.655,22.235,36.297,21.594,37.089,21.594L37.089,21.594z"/>
<path fill="#4D4D4F" d="M42.821,34.97c0.793,0,1.435,0.643,1.435,1.433c0,0.793-0.642,1.435-1.435,1.435
	c-0.791,0-1.433-0.642-1.433-1.435C41.389,35.612,42.03,34.97,42.821,34.97L42.821,34.97z"/>
<path fill="#4D4D4F" d="M48.555,25.416c0.791,0,1.433,0.642,1.433,1.433c0,0.792-0.642,1.433-1.433,1.433
	c-0.792,0-1.434-0.641-1.434-1.433C47.121,26.058,47.763,25.416,48.555,25.416L48.555,25.416z"/>
<path fill="#4D4D4F" d="M61.932,36.881c0.791,0,1.433,0.642,1.433,1.434c0,0.791-0.642,1.433-1.433,1.433
	c-0.792,0-1.434-0.642-1.434-1.433C60.498,37.522,61.14,36.881,61.932,36.881L61.932,36.881z"/>
</svg>
