<?xml version="1.0" encoding="utf-8"?>
<!-- Generator: Adobe Illustrator 15.1.0, SVG Export Plug-In . SVG Version: 6.00 Build 0)  -->
<!DOCTYPE svg PUBLIC "-//W3C//DTD SVG 1.1//EN" "http://www.w3.org/Graphics/SVG/1.1/DTD/svg11.dtd">
<svg version="1.1" id="Layer_1" xmlns="http://www.w3.org/2000/svg" xmlns:xlink="http://www.w3.org/1999/xlink" x="0px" y="0px"
	 width="166px" height="78px" viewBox="0 0 166 78" enable-background="new 0 0 166 78" xml:space="preserve">
<path fill="#FFFFFF" d="M70.827,57.334c0-1.237,0-1.459-0.016-1.714c-0.015-0.27-0.079-0.396-0.341-0.452
	c-0.063-0.016-0.198-0.023-0.27-0.023c-0.032,0-0.064-0.016-0.064-0.049c0-0.048,0.041-0.062,0.127-0.062
	c0.357,0,0.857,0.023,0.897,0.023c0.095,0,0.596-0.023,1.072-0.023c0.786,0,2.238-0.072,3.182,0.904
	c0.396,0.412,0.769,1.072,0.769,2.015c0,1-0.413,1.771-0.856,2.239c-0.342,0.356-1.056,0.912-2.405,0.912
	c-0.341,0-0.762-0.023-1.103-0.047c-0.349-0.024-0.619-0.049-0.659-0.049c-0.016,0-0.15,0-0.317,0.009
	c-0.159,0-0.341,0.016-0.46,0.016c-0.087,0-0.127-0.016-0.127-0.064c0-0.024,0.016-0.048,0.063-0.048
	c0.072,0,0.167-0.016,0.238-0.032c0.159-0.03,0.198-0.205,0.23-0.436c0.04-0.333,0.04-0.96,0.04-1.721V57.334L70.827,57.334z
	 M71.494,58.191c0,0.841,0.008,1.572,0.016,1.723c0.008,0.199,0.023,0.517,0.086,0.604c0.104,0.151,0.414,0.317,1.349,0.317
	c0.738,0,1.421-0.27,1.889-0.737c0.413-0.405,0.635-1.167,0.635-1.897c0-1.009-0.436-1.659-0.762-2
	c-0.746-0.786-1.651-0.897-2.595-0.897c-0.159,0-0.453,0.024-0.516,0.056C71.524,55.39,71.5,55.43,71.5,55.518
	c-0.008,0.27-0.008,1.078-0.008,1.689L71.494,58.191L71.494,58.191z"/>
<path fill="#FFFFFF" d="M78.023,57.334c0-1.237,0-1.459-0.016-1.714c-0.016-0.27-0.08-0.396-0.341-0.452
	c-0.063-0.016-0.199-0.023-0.27-0.023c-0.032,0-0.063-0.016-0.063-0.049c0-0.048,0.04-0.062,0.127-0.062
	c0.183,0,0.397,0,0.572,0.008l0.325,0.016c0.056,0,1.635,0,1.818-0.009c0.149-0.008,0.278-0.023,0.34-0.038
	c0.04-0.009,0.071-0.04,0.111-0.04c0.024,0,0.032,0.032,0.032,0.071c0,0.055-0.04,0.151-0.063,0.372
	c-0.008,0.08-0.024,0.43-0.04,0.524c-0.008,0.039-0.024,0.087-0.056,0.087c-0.047,0-0.063-0.04-0.063-0.104
	c0-0.055-0.008-0.19-0.048-0.285c-0.055-0.127-0.135-0.224-0.563-0.271c-0.135-0.016-1-0.023-1.086-0.023
	c-0.032,0-0.048,0.023-0.048,0.079v2.191c0,0.054,0.009,0.078,0.048,0.078c0.104,0,1.08,0,1.261-0.016
	c0.191-0.016,0.302-0.031,0.374-0.111c0.056-0.063,0.086-0.104,0.119-0.104c0.023,0,0.04,0.015,0.04,0.063
	c0,0.048-0.04,0.183-0.063,0.444c-0.016,0.159-0.032,0.453-0.032,0.508c0,0.063,0,0.151-0.056,0.151
	c-0.041,0-0.057-0.032-0.057-0.071c0-0.08,0-0.159-0.031-0.263c-0.032-0.111-0.103-0.246-0.413-0.278
	c-0.214-0.023-1-0.04-1.135-0.04c-0.04,0-0.056,0.024-0.056,0.056v0.699c0,0.27-0.008,1.19,0,1.356
	c0.024,0.547,0.143,0.65,0.92,0.65c0.207,0,0.556,0,0.762-0.089c0.207-0.086,0.302-0.243,0.357-0.57
	c0.016-0.087,0.032-0.118,0.071-0.118c0.047,0,0.047,0.062,0.047,0.118c0,0.063-0.063,0.604-0.103,0.771
	c-0.056,0.206-0.119,0.206-0.429,0.206c-0.595,0-1.032-0.015-1.341-0.023c-0.31-0.016-0.5-0.024-0.619-0.024
	c-0.015,0-0.15,0-0.317,0.009c-0.159,0-0.34,0.016-0.459,0.016c-0.087,0-0.128-0.016-0.128-0.064c0-0.024,0.016-0.048,0.063-0.048
	c0.071,0,0.167-0.016,0.238-0.032c0.159-0.03,0.198-0.205,0.23-0.436c0.04-0.333,0.04-0.96,0.04-1.722V57.334z"/>
<path fill="#FFFFFF" d="M82.355,60.929c-0.111-0.054-0.118-0.086-0.118-0.302c0-0.396,0.031-0.713,0.04-0.84
	c0.008-0.088,0.023-0.127,0.063-0.127c0.048,0,0.056,0.023,0.056,0.087c0,0.072,0,0.183,0.024,0.293
	c0.119,0.587,0.642,0.811,1.174,0.811c0.762,0,1.135-0.547,1.135-1.055c0-0.548-0.229-0.865-0.913-1.43l-0.356-0.293
	c-0.841-0.689-1.033-1.183-1.033-1.724c0-0.848,0.635-1.428,1.644-1.428c0.31,0,0.539,0.032,0.737,0.08
	c0.15,0.031,0.215,0.039,0.277,0.039c0.064,0,0.079,0.016,0.079,0.055c0,0.04-0.031,0.302-0.031,0.842
	c0,0.127-0.016,0.183-0.055,0.183c-0.048,0-0.055-0.04-0.063-0.104c-0.009-0.096-0.056-0.309-0.103-0.396
	c-0.049-0.088-0.264-0.42-0.992-0.42c-0.548,0-0.976,0.341-0.976,0.921c0,0.451,0.206,0.736,0.967,1.332l0.224,0.176
	c0.936,0.737,1.158,1.229,1.158,1.864c0,0.325-0.128,0.929-0.675,1.316c-0.341,0.239-0.77,0.333-1.199,0.333
	C83.046,61.143,82.681,61.088,82.355,60.929z"/>
<path fill="#FFFFFF" d="M87.386,57.334c0-1.237,0-1.459-0.016-1.714c-0.016-0.27-0.079-0.396-0.342-0.452
	c-0.063-0.016-0.198-0.023-0.268-0.023c-0.033,0-0.064-0.016-0.064-0.049c0-0.048,0.038-0.062,0.127-0.062
	c0.356,0,0.857,0.023,0.896,0.023c0.097,0,0.596-0.023,1.072-0.023c0.785,0,2.238-0.072,3.182,0.904
	c0.396,0.412,0.77,1.072,0.77,2.015c0,1-0.413,1.771-0.857,2.239c-0.341,0.356-1.055,0.912-2.403,0.912
	c-0.342,0-0.763-0.023-1.104-0.047c-0.351-0.024-0.619-0.049-0.659-0.049c-0.016,0-0.15,0-0.317,0.009
	c-0.158,0-0.341,0.016-0.459,0.016c-0.088,0-0.128-0.016-0.128-0.064c0-0.024,0.016-0.048,0.064-0.048
	c0.071,0,0.165-0.016,0.237-0.032c0.158-0.03,0.199-0.205,0.229-0.436c0.04-0.333,0.04-0.96,0.04-1.721L87.386,57.334L87.386,57.334
	z M88.054,58.191c0,0.841,0.008,1.572,0.016,1.723c0.007,0.199,0.022,0.517,0.086,0.604c0.104,0.151,0.413,0.317,1.349,0.317
	c0.738,0,1.421-0.27,1.888-0.737c0.414-0.405,0.636-1.167,0.636-1.897c0-1.009-0.436-1.659-0.763-2
	c-0.745-0.786-1.649-0.897-2.593-0.897c-0.16,0-0.455,0.024-0.519,0.056c-0.07,0.031-0.094,0.071-0.094,0.159
	c-0.008,0.27-0.008,1.078-0.008,1.689v0.984H88.054z"/>
<path fill="#FFFFFF" d="M94.582,57.334c0-1.237,0-1.459-0.015-1.714c-0.017-0.27-0.081-0.396-0.342-0.452
	c-0.064-0.016-0.199-0.023-0.27-0.023c-0.032,0-0.063-0.016-0.063-0.049c0-0.048,0.039-0.062,0.127-0.062
	c0.182,0,0.396,0,0.571,0.008l0.325,0.016c0.056,0,1.635,0,1.817-0.009c0.15-0.008,0.277-0.023,0.341-0.038
	c0.04-0.009,0.072-0.04,0.11-0.04c0.024,0,0.031,0.032,0.031,0.071c0,0.055-0.038,0.151-0.062,0.372
	c-0.008,0.08-0.023,0.43-0.039,0.524c-0.01,0.039-0.024,0.087-0.055,0.087c-0.049,0-0.064-0.04-0.064-0.104
	c0-0.055-0.009-0.19-0.048-0.285c-0.055-0.127-0.135-0.224-0.562-0.271c-0.136-0.016-1-0.023-1.088-0.023
	c-0.031,0-0.047,0.023-0.047,0.079v2.191c0,0.054,0.008,0.078,0.047,0.078c0.103,0,1.08,0,1.263-0.016
	c0.189-0.016,0.301-0.031,0.373-0.111c0.054-0.063,0.086-0.104,0.118-0.104c0.023,0,0.039,0.015,0.039,0.063
	c0,0.048-0.039,0.183-0.064,0.444c-0.015,0.159-0.03,0.453-0.03,0.508c0,0.063,0,0.151-0.056,0.151c-0.04,0-0.056-0.032-0.056-0.071
	c0-0.08,0-0.159-0.031-0.263c-0.031-0.111-0.104-0.246-0.412-0.278c-0.216-0.023-1-0.04-1.136-0.04
	c-0.041,0-0.055,0.024-0.055,0.056v0.699c0,0.27-0.01,1.19,0,1.356c0.023,0.547,0.142,0.65,0.919,0.65c0.208,0,0.557,0,0.764-0.089
	c0.205-0.086,0.301-0.243,0.356-0.57c0.017-0.087,0.031-0.118,0.07-0.118c0.048,0,0.048,0.062,0.048,0.118
	c0,0.063-0.063,0.604-0.102,0.771c-0.055,0.206-0.119,0.206-0.429,0.206c-0.596,0-1.032-0.015-1.343-0.023
	c-0.308-0.016-0.499-0.024-0.618-0.024c-0.016,0-0.15,0-0.317,0.009c-0.159,0-0.341,0.016-0.46,0.016
	c-0.087,0-0.126-0.016-0.126-0.064c0-0.024,0.015-0.048,0.062-0.048c0.071,0,0.166-0.016,0.238-0.032
	c0.159-0.03,0.2-0.205,0.23-0.436c0.039-0.333,0.039-0.96,0.039-1.722L94.582,57.334L94.582,57.334L94.582,57.334z"/>
<path fill="#FFFFFF" d="M103.286,58.62c-0.009,0.794,0,1.476,0.04,1.825c0.03,0.245,0.063,0.364,0.317,0.42
	c0.119,0.023,0.451,0.048,0.523,0.048c0.032,0,0.071,0.031,0.071,0.064c0,0.039-0.039,0.055-0.135,0.055
	c-0.596,0-1.104-0.024-1.144-0.024s-0.706,0.024-1.214,0.024c-0.087,0-0.135-0.016-0.135-0.055c0-0.033,0.031-0.064,0.062-0.064
	c0.096,0,0.484-0.024,0.635-0.055c0.263-0.049,0.317-0.167,0.333-0.413c0.024-0.35,0.024-1.031,0.024-1.825v-1.391
	c0-0.429,0-0.769,0-1.205c0-0.159-0.015-0.245-0.143-0.245c-0.151,0-0.707,0.286-0.904,0.381c-0.04,0.024-0.063,0.031-0.096,0.031
	c-0.023,0-0.055-0.039-0.055-0.071c0-0.024,0.023-0.056,0.055-0.08l1.531-1.022c0.072-0.049,0.136-0.097,0.189-0.097
	c0.064,0,0.089,0.088,0.089,0.167c0,0.063-0.032,0.85-0.04,2.063L103.286,58.62z"/>
<path fill="#FFFFFF" d="M109.221,57.08c0,2.23-1.776,3.604-2.746,4.088c-0.048,0.022-0.096,0.031-0.126,0.031
	c-0.031,0-0.064-0.031-0.064-0.078c0-0.048,0.032-0.087,0.079-0.111c0.938-0.516,2.157-1.833,2.157-3.697
	c0-1.391-0.609-2.096-1.308-2.096c-0.713,0-1.087,0.587-1.087,1.216c0,1.316,0.975,1.578,1.189,1.578
	c0.373,0,0.532-0.078,0.634-0.143c0.049-0.032,0.08-0.048,0.104-0.048s0.039,0.031,0.039,0.056c0,0.023-0.008,0.04-0.031,0.063
	c-0.23,0.245-0.635,0.365-0.952,0.365c-1.127,0-1.604-0.865-1.604-1.532c0-1.095,0.802-1.849,1.897-1.849
	C108.522,54.922,109.221,55.875,109.221,57.08z"/>
<path fill="#FFFFFF" d="M111.046,56.778c1.008,0.151,2.477,0.762,2.477,2.175c0,1.024-0.778,2.189-2.383,2.189
	c-0.236,0-0.53-0.031-0.729-0.142c-0.136-0.072-0.151-0.142-0.151-0.222c0-0.271-0.008-0.747,0.031-1.001
	c0.017-0.079,0.04-0.143,0.073-0.143c0.047,0,0.062,0.04,0.062,0.136c0,0.849,0.508,1.023,1.088,1.023
	c0.666,0,1.396-0.444,1.396-1.539c0-1.277-1.405-1.897-2.016-1.928c-0.158-0.008-0.214-0.056-0.205-0.143l0.182-2.024
	c0.009-0.078,0.063-0.104,0.151-0.104h1.864c0.223,0,0.365-0.016,0.46-0.031c0.095-0.008,0.143-0.023,0.166-0.023
	c0.031,0,0.055,0.016,0.055,0.079c0,0.071-0.023,0.421-0.102,1c-0.009,0.04-0.031,0.087-0.063,0.087s-0.049-0.047-0.049-0.103
	c0-0.302-0.071-0.509-0.698-0.509h-1.498L111.046,56.778z"/>
<path fill="#FFFFFF" d="M118.354,55.057c0.103,0,0.144,0.031,0.144,0.079c0,0.031-0.009,0.088-0.05,0.151
	c-0.642,0.951-1.951,4.063-2.069,5.095c-0.018,0.135,0,0.189,0,0.277c0,0.158-0.62,0.483-0.778,0.483
	c-0.049,0-0.071-0.024-0.071-0.078c0-0.079,0.022-0.199,0.048-0.271c0.309-1.039,1.167-3.158,2.364-5.237h-1.952
	c-0.229,0-0.546,0.04-0.736,0.199c-0.167,0.136-0.278,0.39-0.302,0.609c-0.009,0.074-0.032,0.112-0.072,0.112
	s-0.048-0.038-0.048-0.128c0-0.252,0.119-1.181,0.119-1.261c0-0.079,0.031-0.111,0.078-0.111c0.048,0,0.238,0.079,0.754,0.079
	H118.354L118.354,55.057z"/>
<path fill="#FFFFFF" d="M59.967,41.691c0.022,0.003,0.045,0.004,0.068,0.004c0.262,0,0.488-0.194,0.522-0.459
	c0.037-0.288-0.167-0.553-0.456-0.59l-3.792-0.483c-0.001,0.354-0.003,0.71-0.021,1.058L59.967,41.691z"/>
<g>
	<path fill="#FFFFFF" d="M0,0v61.367l31.973,16.349l31.974-16.349V0H0z M60.148,31.496c0.062,0.285-0.119,0.564-0.404,0.627
		l-4.706,1.015c-0.142-0.333-0.296-0.659-0.464-0.978l4.947-1.068C59.808,31.032,60.086,31.212,60.148,31.496z M58.713,26.824
		c0.108,0.27-0.022,0.576-0.292,0.686l-5.258,2.114c0.084-0.365,0.071-0.748-0.049-1.116l4.914-1.976
		C58.297,26.422,58.604,26.554,58.713,26.824z M56.518,22.461c0.153,0.247,0.075,0.572-0.172,0.725l-4.717,2.904
		c-0.217-0.277-0.447-0.548-0.687-0.813l4.851-2.988C56.04,22.136,56.365,22.214,56.518,22.461z M53.604,18.521
		c0.192,0.218,0.172,0.551-0.047,0.743l-4.648,4.095c-0.037-0.03-0.072-0.062-0.111-0.091c-0.011-0.339-0.113-0.668-0.283-0.966
		l4.345-3.828C53.078,18.281,53.411,18.302,53.604,18.521z M50.085,15.144c0.227,0.182,0.262,0.514,0.079,0.74l-3.687,4.567
		c-0.289-0.2-0.589-0.386-0.897-0.566l3.765-4.663C49.528,14.996,49.859,14.961,50.085,15.144z M45.316,12.615
		c0.142-0.254,0.463-0.345,0.717-0.203s0.345,0.463,0.203,0.717l-3.134,5.608c-0.331-0.119-0.673-0.229-1.022-0.331L45.316,12.615z
		 M40.899,10.708c0.097-0.274,0.397-0.418,0.672-0.321c0.274,0.097,0.418,0.397,0.322,0.672l-2.389,6.765
		c-0.349-0.057-0.696-0.116-1.061-0.16L40.899,10.708z M36.234,9.606c0.049-0.287,0.322-0.478,0.608-0.431
		c0.287,0.05,0.48,0.322,0.431,0.609l-1.153,6.723c-0.354-0.026-0.708-0.042-1.062-0.042L36.234,9.606z M31.446,9.28
		c0-0.291,0.236-0.527,0.527-0.527S32.5,8.989,32.5,9.28v7.409c-0.352,0.061-0.703,0.133-1.054,0.219V9.28z M27.104,9.175
		c0.29-0.047,0.559,0.145,0.608,0.431l1.292,7.531c-0.344-0.163-0.724-0.229-1.103-0.193l-1.228-7.16
		C26.624,9.497,26.816,9.225,27.104,9.175z M22.375,10.386c0.276-0.097,0.576,0.047,0.672,0.321l2.591,7.339
		c-0.304,0.227-0.591,0.471-0.856,0.741l-2.728-7.729C21.957,10.784,22.102,10.483,22.375,10.386z M17.914,12.413
		c0.254-0.142,0.575-0.051,0.717,0.203l4.462,7.987l0.197,0.353c-0.19,0.396-0.358,0.816-0.503,1.26l-0.609-1.09L17.71,13.13
		C17.569,12.876,17.66,12.554,17.914,12.413z M13.86,15.144c0.227-0.183,0.559-0.147,0.741,0.079l5.76,7.133l1.446,1.791
		c-0.318,0.15-0.659,0.302-0.992,0.449l-1.278-1.583l-5.754-7.127C13.599,15.658,13.634,15.325,13.86,15.144z M10.342,18.521
		c0.192-0.218,0.525-0.239,0.744-0.047l6.875,6.057l1.026,0.904c-0.339,0.169-0.669,0.346-0.986,0.536l-0.749-0.659l-6.863-6.047
		C10.171,19.072,10.15,18.739,10.342,18.521z M7.429,22.461c0.152-0.248,0.477-0.324,0.725-0.172l7.791,4.798l0.376,0.231
		c-0.099,0.11-0.199,0.219-0.286,0.337c-0.119,0.161-0.218,0.341-0.312,0.532l-0.325-0.2l-7.796-4.801
		C7.354,23.033,7.276,22.708,7.429,22.461z M5.233,26.824c0.108-0.27,0.415-0.402,0.686-0.292l8.481,3.41l0.622,0.25
		c-0.081,0.258-0.168,0.524-0.225,0.643c-0.06,0.088-0.149,0.191-0.252,0.302l-0.525-0.211L5.525,27.51
		C5.255,27.4,5.125,27.094,5.233,26.824z M3.797,31.496c0.061-0.284,0.34-0.464,0.626-0.404l8.162,1.761
		c-0.327,0.271-0.655,0.544-0.95,0.814c-0.017,0.015-0.038,0.032-0.054,0.047l-7.38-1.593C3.917,32.061,3.736,31.78,3.797,31.496z
		 M3.178,36.366c0.012-0.291,0.261-0.507,0.549-0.504l5.196,0.218c-0.289,0.321-0.546,0.662-0.754,1.024l-4.486-0.189
		C3.392,36.902,3.166,36.656,3.178,36.366z M3.911,41.695c-0.26,0-0.488-0.194-0.521-0.46c-0.037-0.289,0.167-0.553,0.456-0.59
		l3.889-0.498c0.082,0.366,0.205,0.705,0.354,1.018l-4.11,0.525C3.956,41.694,3.933,41.695,3.911,41.695z M4.92,46.394
		c-0.225,0-0.434-0.146-0.503-0.373c-0.085-0.279,0.071-0.573,0.349-0.658l5.218-1.599c0.104,0.341,0.213,0.674,0.331,1.001
		L5.075,46.37C5.024,46.386,4.972,46.394,4.92,46.394z M6.704,50.843c-0.192,0-0.378-0.107-0.471-0.29
		c-0.131-0.26-0.026-0.577,0.233-0.709l4.969-2.503c0.161,0.314,0.328,0.624,0.499,0.928L6.94,50.785
		C6.864,50.823,6.783,50.843,6.704,50.843z M9.219,54.931c-0.162,0-0.321-0.073-0.425-0.213c-0.173-0.234-0.124-0.563,0.11-0.737
		l4.52-3.343c0.201,0.291,0.401,0.581,0.606,0.864l-4.499,3.326C9.437,54.898,9.327,54.931,9.219,54.931z M12.395,58.523
		c-0.131,0-0.262-0.05-0.364-0.146c-0.21-0.201-0.217-0.535-0.016-0.744l3.713-3.874c0.237,0.287,0.535,0.498,0.86,0.625
		l-3.814,3.978C12.672,58.469,12.534,58.523,12.395,58.523z M16.562,61.305c-0.102,0.15-0.268,0.231-0.437,0.231
		c-0.102,0-0.204-0.03-0.294-0.092c-0.241-0.162-0.304-0.49-0.141-0.731l3.645-5.387c0.04,0.534,0.101,1.065,0.198,1.587
		L16.562,61.305z M20.792,63.576c-0.088,0.193-0.28,0.309-0.481,0.309c-0.072,0-0.146-0.016-0.216-0.047
		c-0.265-0.12-0.382-0.432-0.263-0.696l1.013-2.242c0.193,0.402,0.404,0.791,0.626,1.172L20.792,63.576z M34.421,66.286
		c-0.015,0.001-0.03,0.002-0.044,0.002c-0.271,0-0.501-0.207-0.525-0.482l-0.229-2.685c0.294-0.517,0.61-0.986,0.937-1.421
		l0.342,4.017C34.927,66.007,34.711,66.262,34.421,66.286z M39.235,65.47c-0.044,0.012-0.089,0.017-0.133,0.017
		c-0.234,0-0.448-0.155-0.509-0.394l-1.534-5.891c0.325-0.237,0.639-0.441,0.932-0.604l1.622,6.229
		C39.686,65.108,39.517,65.396,39.235,65.47z M30.377,65.323c-1.226-3.59-0.767-6.369,0.48-8.644
		c0.811-1.478,1.95-2.744,3.187-3.876c2.04-1.866,3.672-3.75,4.806-5.943c-0.004,0.278,2.177-3.903,0.633-7.356
		c0,0-1.711-4.894-7.512-5.007c0.002,0.001-1.364-4.966-5.007-6.858c-0.445-0.524-0.87-1.068-1.644-1.265
		c-1.794,1.325-5.299,1.913-6.449,3.668c-0.583,0.89-0.593,2.42-1.138,3.035c-1.448,1.636-3.499,2.748-4.911,4.304
		c-0.287,0.316-0.557,0.645-0.78,1.007c0.225,0.077,0.506,0.092,0.815,0.08c0.908-0.035,2.057-0.309,2.726,0.047
		c-0.154,0.965-1.981,1.213-2.452,2.466c-0.244,0.65-0.112,1.576,0.803,3.012c0.047,0.073,0.08,0.138,0.131,0.214
		c1.842-1.121,3.87,0.702,5.185,0.758c1.773,0.075,3.815-1.48,3.793-3.793c0.58,2.038-0.747,3.757-1.518,4.426
		c0.548,0,1.096,0,1.644,0c0.106,0.865-2.013,1.949-2.909,1.897c-1.061-1.439-3.275-3.388-5.799-2.157
		c-0.006,0.003-0.012,0.005-0.018,0.008c0.035,0.048,0.062,0.102,0.094,0.151c0.464,0.7,0.759,1.517,1.296,2.378
		c0.066,0.104,0.157,0.261,0.259,0.433c0.384,0.647,0.967,1.602,1.394,1.793c0.04,0.018,0.081,0.045,0.118,0.049
		c0.017,0.003,0.821-0.664,1.011-0.757c1.447-0.712,2.768-0.817,4.679-0.885c2.678-1.887,5.495-7.26,2.656-10.876
		c1.383-1.521,11.314-2.033,11.761,3.792c0.362,4.714-2.35,7.452-4.553,9.611c-1.786,1.751-3.787,3.224-4.78,5.354
		c-0.659,1.415-0.878,3.117-0.278,5.395c-0.262,0.675-0.973-0.927-1.265-0.632c0.4,1.539,0.675,3.202,1.138,4.679
		c-3.644-2.109-6.862-7.064-6.553-12.264c0.067-1.137,0.297-2.285,0.736-3.419c-1.498,0.065-2.517,0.609-3.433,1.256
		c-0.468,0.33-0.911,0.687-1.373,1.021c-2.241-2.942-4.491-5.879-5.564-9.99c-0.773-0.922-2.281-1.942-2.023-3.668
		c0.178-1.19,2.08-2.469,3.193-3.458c0.03-0.027,0.066-0.056,0.095-0.082c1.13-1.031,2.877-2.244,3.541-3.289
		c0.393-0.617,0.754-2.51,1.138-3.034c1.219-1.659,5.13-2.565,6.576-3.794c0.337-2.952,1.482-5.094,3.793-6.071
		c-0.243,0.728-0.615,1.325-0.886,2.023c1.891-1.229,4.345-2.335,7.278-2.463c0.671-0.029,1.359-0.024,2.081,0.062
		c-0.162,0.074-0.333,0.139-0.504,0.203c-0.473,0.176-0.954,0.345-1.266,0.682c1.719,0.017,3.303,0.167,4.767,0.439
		c2.945,0.546,5.362,1.622,7.12,3.354c-0.553-0.041-1.417-0.433-1.897-0.127c2.677,1.329,5.108,3.576,6.323,5.944
		c-0.952-0.788-2.031-1.551-3.204-2.218c-1.812-1.03-3.853-1.825-6.027-2.082c2.611,1.224,4.704,3.642,6.575,5.184
		c-0.404-0.735-1.204-1.743-1.263-2.403c0.657,0.395,1.27,0.828,1.858,1.283c2.812,2.171,4.775,5.099,5.097,9.593
		c0.58,8.093-3.379,13.145-8.458,16.449c-1.693,1.103-3.51,2.009-5.325,2.771C42.476,53.964,33.327,55.957,30.377,65.323z
		 M43.851,63.837c-0.07,0.032-0.144,0.048-0.217,0.048c-0.2,0-0.392-0.115-0.48-0.31l-1.796-3.972
		c0.329-0.142,0.647-0.284,0.963-0.427l1.792,3.964C44.234,63.404,44.117,63.717,43.851,63.837z M48.115,61.444
		c-0.09,0.061-0.193,0.091-0.294,0.091c-0.169,0-0.335-0.081-0.437-0.231l-2.359-3.489c0.311-0.173,0.617-0.349,0.914-0.528
		l2.317,3.426C48.419,60.953,48.356,61.282,48.115,61.444z M51.915,58.377c-0.103,0.097-0.233,0.146-0.365,0.146
		c-0.139,0-0.277-0.055-0.38-0.162l-2.684-2.799c0.282-0.217,0.564-0.433,0.831-0.655l2.613,2.726
		C52.132,57.842,52.125,58.176,51.915,58.377z M55.152,54.718c-0.104,0.14-0.263,0.213-0.424,0.213
		c-0.109,0-0.219-0.032-0.313-0.103l-2.839-2.1c0.236-0.264,0.469-0.53,0.688-0.802l2.777,2.054
		C55.276,54.154,55.325,54.483,55.152,54.718z M57.713,50.553c-0.093,0.182-0.278,0.289-0.471,0.289
		c-0.079,0-0.161-0.019-0.236-0.057l-2.972-1.5c0.17-0.308,0.332-0.618,0.482-0.937l2.963,1.495
		C57.74,49.976,57.844,50.293,57.713,50.553z M59.529,46.021c-0.069,0.228-0.278,0.373-0.503,0.373
		c-0.051,0-0.104-0.008-0.154-0.023l-3.245-0.993c0.093-0.338,0.171-0.681,0.245-1.028l3.308,1.014
		C59.458,45.447,59.614,45.741,59.529,46.021z M60.263,36.915l-4.143,0.174c-0.05-0.356-0.11-0.705-0.18-1.047l4.279-0.18
		c0.296-0.004,0.536,0.213,0.548,0.504S60.555,36.902,60.263,36.915z"/>
	<path fill="#FFFFFF" d="M30.125,22.708c-0.764,1.623-0.301,5.187,2.15,4.3c0.147-1.366-1.727-3.979,0.633-4.3
		c2.879-0.393,3.646,3.807,2.655,6.702c1.226-1.74,1.924-5.473,0.379-7.208C34.36,20.424,30.968,20.918,30.125,22.708z"/>
	<path fill="#FFFFFF" d="M42.3,27.776L42.3,27.776c0.239,0.271,0.455,0.539,0.678,0.808c0.297,0.359,0.582,0.716,0.852,1.072
		c0.215,0.283,0.436,0.567,0.633,0.848c0.276,0.393,0.528,0.783,0.771,1.172c0.193,0.308,0.367,0.613,0.54,0.918l0,0
		c0.25,0.441,0.479,0.88,0.688,1.315c0.158,0.329,0.306,0.657,0.442,0.982c0.211,0.506,0.395,1.008,0.555,1.505
		c0.112,0.35,0.213,0.698,0.301,1.043c0.143,0.562,0.255,1.118,0.336,1.668c0,0,0,0.001,0,0.001c0.053,0.362,0.092,0.721,0.12,1.077
		c0.048,0.618,0.064,1.229,0.041,1.829c-0.015,0.362-0.039,0.723-0.078,1.078c-0.07,0.645-0.184,1.275-0.329,1.896
		c-0.082,0.351-0.176,0.696-0.28,1.039c-0.029,0.095-0.052,0.192-0.082,0.286c-0.186,0.576-0.392,1.115-0.606,1.632
		c-0.142,0.341-0.288,0.67-0.438,0.985c0,0,0,0.001,0,0.001c-0.332,0.695-0.678,1.334-1.027,1.903c0,0,0,0.001,0,0.001
		c-0.199,0.323-0.396,0.62-0.592,0.904c-0.014,0.02-0.028,0.039-0.042,0.06c-0.493,0.707-0.966,1.291-1.373,1.745h0
		c-0.261,0.291-0.496,0.534-0.689,0.723c-0.355,0.347-0.573,0.519-0.573,0.519s5.288-0.233,9.34-8.891
		c2.979-6.362,0.417-11.5-1.152-13.779c-0.566-0.822-1.004-1.276-1.004-1.276c0.199,0.662,0.299,1.165,0.335,1.552
		c0.037,0.391,0.004,0.659-0.068,0.839c-0.223,0.551-0.814,0.287-0.965,0.208c-0.022-0.012-0.038-0.021-0.038-0.021
		c-0.446-0.506-0.882-0.981-1.311-1.434c0,0,0,0,0,0c-0.268-0.283-0.531-0.556-0.79-0.818c-0.17-0.173-0.337-0.338-0.502-0.501
		c-2.838-2.798-4.949-4.247-4.949-4.247c0.265,0.271,0.504,0.541,0.753,0.811C41.962,27.414,42.141,27.596,42.3,27.776z"/>
</g>
<path fill="#FFFFFF" d="M85.636,21.658h0.512v5.657h-0.512c-0.144-0.644-0.401-1.21-0.775-1.704
	c-1.419,1.604-3.234,2.406-5.442,2.406c-2.333,0-4.24-0.738-5.722-2.215c-1.48-1.476-2.22-3.429-2.22-5.858
	c0-1.596,0.341-3.098,1.024-4.507c0.683-1.409,1.635-2.455,2.858-3.138c1.221-0.683,2.563-1.024,4.024-1.024
	c1.207,0,2.301,0.249,3.281,0.744c0.98,0.497,1.712,1.047,2.196,1.649c0.342-0.674,0.548-1.373,0.619-2.095h0.524l0.143,6.121
	h-0.512c-0.357-2.175-1.086-3.687-2.185-4.537c-1.1-0.85-2.34-1.274-3.722-1.274c-1.69,0-3.034,0.687-4.03,2.06
	c-0.997,1.374-1.495,3.338-1.495,5.895c0,2.421,0.544,4.277,1.632,5.567c1.087,1.29,2.44,1.935,4.06,1.935
	c0.865,0,1.751-0.21,2.656-0.631s1.621-1.133,2.149-2.137C85.228,23.566,85.54,22.595,85.636,21.658z"/>
<path fill="#FFFFFF" d="M98.496,25.933h0.439c-0.07,1.357-0.737,2.037-2,2.037c-0.54,0-0.967-0.143-1.28-0.429
	c-0.313-0.287-0.518-0.71-0.613-1.274c-0.794,0.563-1.518,0.987-2.174,1.274c-0.654,0.286-1.24,0.429-1.756,0.429
	c-0.659,0-1.227-0.192-1.702-0.573c-0.477-0.381-0.715-0.885-0.715-1.512c0-0.818,0.398-1.532,1.197-2.143
	c0.798-0.611,1.899-1.207,3.304-1.786l1.846-0.75v-0.477c0-0.674-0.044-1.163-0.131-1.465c-0.087-0.301-0.313-0.571-0.679-0.81
	c-0.366-0.237-0.845-0.357-1.44-0.357c-1.191,0-1.854,0.397-1.989,1.19c-0.126,0.81-0.459,1.214-1,1.214
	c-0.483,0-0.727-0.23-0.727-0.69c0-0.453,0.321-0.938,0.966-1.458c0.643-0.52,1.643-0.78,3-0.78c1.009,0,1.791,0.159,2.347,0.477
	s0.923,0.679,1.101,1.083c0.179,0.404,0.269,1.024,0.269,1.857v3.941c0,0.92,0.048,1.512,0.142,1.774
	c0.097,0.262,0.302,0.393,0.619,0.393C98.043,27.1,98.369,26.711,98.496,25.933z M95.042,21.766l-1.298,0.524
	c-2.049,0.833-3.071,1.88-3.071,3.144c0,0.499,0.13,0.903,0.392,1.208c0.263,0.306,0.604,0.458,1.025,0.458
	c0.373,0,0.806-0.123,1.298-0.369c0.491-0.246,1.043-0.615,1.655-1.107L95.042,21.766L95.042,21.766z"/>
<path fill="#FFFFFF" d="M103.246,20.063c0.271-0.707,0.709-1.298,1.316-1.774c0.606-0.476,1.2-0.714,1.78-0.714
	c0.524,0,0.937,0.163,1.238,0.488s0.453,0.659,0.453,1c0,0.23-0.078,0.429-0.232,0.595c-0.155,0.167-0.344,0.25-0.565,0.25
	c-0.396,0-0.699-0.293-0.904-0.881c-0.143-0.397-0.357-0.595-0.644-0.595c-0.342,0-0.751,0.232-1.227,0.697
	c-0.477,0.464-0.782,0.946-0.917,1.447c-0.135,0.5-0.202,1.187-0.202,2.06v1.739c0,1.04,0.014,1.694,0.041,1.964
	c0.029,0.27,0.142,0.476,0.341,0.619c0.197,0.143,0.551,0.214,1.059,0.214h0.333v0.548h-5.18v-0.548h0.251
	c0.477,0,0.815-0.065,1.017-0.196c0.203-0.131,0.324-0.316,0.364-0.554c0.04-0.238,0.06-0.921,0.06-2.048v-2.751
	c0-1.047-0.014-1.705-0.041-1.971c-0.029-0.266-0.142-0.472-0.341-0.619c-0.198-0.147-0.552-0.22-1.059-0.22h-0.251v-0.536
	c0.747-0.087,1.724-0.322,2.93-0.703C103.096,18.202,103.223,19.031,103.246,20.063z"/>
<path fill="#FFFFFF" d="M112.095,17.574h0.321c0.182,0.493,0.285,1.163,0.31,2.013c0.571-0.675,1.171-1.179,1.798-1.512
	s1.281-0.5,1.964-0.5c0.778,0,1.415,0.163,1.911,0.488s0.815,0.725,0.959,1.196c0.143,0.472,0.215,1.161,0.215,2.066v3.048
	c0,1.127,0.019,1.814,0.059,2.06s0.165,0.43,0.376,0.553c0.209,0.124,0.597,0.185,1.16,0.185v0.548h-4.989v-0.548h0.226
	c0.572,0,0.944-0.083,1.119-0.25s0.274-0.361,0.298-0.583c0.024-0.222,0.035-0.877,0.035-1.964V21.23c0-0.77-0.037-1.32-0.112-1.65
	c-0.076-0.329-0.279-0.621-0.607-0.875c-0.328-0.254-0.748-0.381-1.256-0.381c-0.58,0-1.135,0.173-1.661,0.518
	c-0.529,0.345-1.027,0.863-1.495,1.554v3.978c0,1.127,0.021,1.813,0.065,2.06s0.172,0.431,0.381,0.554
	c0.21,0.123,0.603,0.185,1.173,0.185v0.548h-4.929v-0.548c0.547,0,0.929-0.056,1.143-0.167c0.213-0.111,0.348-0.28,0.398-0.506
	c0.051-0.226,0.078-0.935,0.078-2.125v-2.906c0-1.135-0.022-1.824-0.066-2.066s-0.17-0.425-0.382-0.548
	c-0.209-0.123-0.601-0.185-1.172-0.185v-0.548C110.288,18.026,111.182,17.845,112.095,17.574z"/>
<path fill="#FFFFFF" d="M125.621,17.574v6.8c0,1.04,0.016,1.695,0.047,1.964c0.032,0.271,0.147,0.477,0.347,0.62
	c0.198,0.143,0.552,0.214,1.061,0.214h0.249v0.548h-5.252v-0.548h0.405c0.562,0,0.931-0.082,1.102-0.244
	c0.17-0.163,0.27-0.357,0.297-0.583c0.028-0.226,0.042-0.883,0.042-1.971V21.42c0-1.143-0.054-1.842-0.16-2.096
	c-0.107-0.254-0.25-0.413-0.429-0.477c-0.179-0.063-0.49-0.095-0.935-0.095h-0.322v-0.548c1.413-0.143,2.509-0.353,3.286-0.631
	H125.621z M123.322,12.597c0-0.341,0.121-0.635,0.364-0.881c0.241-0.246,0.533-0.369,0.874-0.369c0.342,0,0.632,0.124,0.87,0.369
	c0.237,0.246,0.356,0.541,0.356,0.881c0,0.35-0.119,0.647-0.356,0.893c-0.238,0.246-0.528,0.369-0.87,0.369
	c-0.341,0-0.633-0.123-0.874-0.369C123.444,13.244,123.322,12.946,123.322,12.597z"/>
<path fill="#FFFFFF" d="M86.311,41.605h0.52v5.748h-0.52c-0.146-0.653-0.408-1.229-0.787-1.729c-1.443,1.629-3.288,2.443-5.53,2.443
	c-2.373,0-4.311-0.75-5.815-2.251c-1.505-1.501-2.257-3.484-2.257-5.953c0-1.623,0.347-3.148,1.041-4.581
	c0.694-1.432,1.662-2.494,2.905-3.189c1.242-0.693,2.605-1.041,4.09-1.041c1.226,0,2.337,0.252,3.334,0.757
	c0.996,0.503,1.74,1.062,2.232,1.676c0.348-0.686,0.558-1.396,0.629-2.13h0.533l0.146,6.22h-0.521
	c-0.363-2.209-1.104-3.747-2.221-4.61c-1.117-0.863-2.378-1.294-3.781-1.294c-1.718,0-3.083,0.697-4.097,2.093
	c-1.013,1.396-1.519,3.392-1.519,5.99c0,2.461,0.552,4.347,1.657,5.658c1.105,1.311,2.481,1.966,4.126,1.966
	c0.88,0,1.779-0.214,2.699-0.642c0.921-0.427,1.647-1.151,2.184-2.173C85.896,43.544,86.214,42.558,86.311,41.605z"/>
<path fill="#FFFFFF" d="M89.735,39.451c0-2.533,0.846-4.565,2.54-6.098s3.809-2.3,6.341-2.3c2.558,0,4.693,0.758,6.407,2.274
	c1.714,1.518,2.571,3.587,2.571,6.209c0,2.54-0.82,4.599-2.462,6.171c-1.643,1.572-3.803,2.359-6.48,2.359
	c-2.605,0-4.743-0.787-6.413-2.359S89.735,42.05,89.735,39.451z M92.506,39.537c0,2.638,0.526,4.618,1.579,5.94
	c1.054,1.323,2.633,1.985,4.738,1.985c1.848,0,3.307-0.662,4.381-1.985c1.072-1.322,1.608-3.296,1.608-5.917
	c0-2.549-0.528-4.503-1.584-5.863c-1.058-1.359-2.591-2.039-4.599-2.039c-1.977,0-3.491,0.664-4.544,1.992
	C93.032,34.976,92.506,36.938,92.506,39.537z"/>
<path fill="#FFFFFF" d="M120.351,44.933l5.978-13.576h5.034v0.557h-0.605c-0.808,0-1.335,0.066-1.585,0.199
	c-0.249,0.134-0.418,0.381-0.502,0.744c-0.086,0.363-0.127,1.226-0.127,2.589v8.047c0,1.291,0.031,2.137,0.096,2.536
	c0.064,0.398,0.228,0.695,0.49,0.889s0.765,0.291,1.507,0.291h0.727v0.556h-7.842v-0.556h0.581c0.693,0,1.176-0.089,1.446-0.266
	c0.27-0.179,0.442-0.455,0.521-0.83c0.077-0.375,0.115-1.248,0.115-2.62V33.051l-6.499,14.714h-0.567l-6.548-14.714v9.607
	c0,1.315,0.04,2.211,0.121,2.687c0.081,0.477,0.331,0.894,0.75,1.253c0.42,0.358,1.009,0.562,1.768,0.61v0.557h-5.87v-0.557
	c0.703-0.04,1.272-0.232,1.712-0.574c0.44-0.344,0.708-0.766,0.806-1.265c0.096-0.5,0.145-1.429,0.145-2.783v-7.14
	c0-1.306-0.038-2.15-0.115-2.529c-0.076-0.379-0.238-0.641-0.483-0.786c-0.245-0.146-0.785-0.218-1.615-0.218h-0.448v-0.557h4.998
	L120.351,44.933z"/>
<path fill="#FFFFFF" d="M145.979,42.658h0.582l-0.351,5.106h-13.59v-0.556h0.339c0.814,0,1.341-0.109,1.579-0.327
	c0.238-0.219,0.389-0.494,0.453-0.83c0.065-0.334,0.098-1.187,0.098-2.559v-8.047c0-1.25-0.035-2.072-0.104-2.468
	c-0.068-0.395-0.225-0.672-0.471-0.829c-0.247-0.158-0.766-0.236-1.556-0.236v-0.557h11.726l0.388,4.09h-0.568
	c-0.26-1.145-0.576-1.958-0.95-2.438c-0.375-0.48-0.82-0.782-1.337-0.907c-0.518-0.126-1.348-0.188-2.493-0.188h-2.275v6.885h1.743
	c0.799,0,1.356-0.068,1.676-0.205c0.318-0.138,0.527-0.345,0.628-0.624c0.103-0.278,0.152-0.821,0.152-1.628h0.569v5.616h-0.569
	c0-0.912-0.077-1.522-0.229-1.834c-0.154-0.31-0.377-0.512-0.672-0.605c-0.295-0.093-0.793-0.139-1.494-0.139h-1.804v3.885
	c0,1.944,0.125,3.087,0.376,3.431c0.249,0.342,0.923,0.514,2.021,0.514h1.222c0.862,0,1.573-0.111,2.129-0.332
	c0.558-0.223,1.089-0.679,1.592-1.368C145.293,44.818,145.69,43.868,145.979,42.658z"/>
<path fill="#FFFFFF" d="M165.342,47.765h-4.416c-0.783-0.548-1.981-1.984-3.595-4.308c-0.516-0.741-1.052-1.454-1.609-2.136
	c-0.557-0.682-0.939-1.096-1.149-1.246c-0.21-0.149-0.537-0.223-0.98-0.223h-0.653v3.642c0,1.291,0.031,2.136,0.091,2.535
	c0.061,0.398,0.222,0.695,0.485,0.89c0.261,0.192,0.764,0.29,1.506,0.29h0.786v0.557h-7.854v-0.557h0.532
	c0.702,0,1.188-0.089,1.458-0.266c0.27-0.178,0.441-0.455,0.515-0.83s0.108-1.247,0.108-2.619v-8.047
	c0-1.307-0.035-2.15-0.108-2.529s-0.233-0.641-0.483-0.787c-0.25-0.145-0.791-0.217-1.622-0.217h-0.278v-0.557l2.348-0.121
	c1.564-0.073,2.808-0.109,3.727-0.109c1.564,0,2.837,0.146,3.817,0.437c0.98,0.29,1.773,0.766,2.378,1.427
	c0.605,0.663,0.907,1.453,0.907,2.373c0,1.073-0.395,1.989-1.186,2.747c-0.792,0.759-1.952,1.23-3.484,1.416
	c0.685,0.331,1.79,1.524,3.314,3.582c1.242,1.67,2.22,2.764,2.929,3.279c0.71,0.517,1.549,0.792,2.517,0.823L165.342,47.765
	L165.342,47.765z M152.938,39.294c0.605-0.016,1.23-0.04,1.877-0.072c0.645-0.032,1.205-0.121,1.682-0.266
	c0.476-0.146,0.86-0.357,1.155-0.636c0.295-0.278,0.526-0.643,0.695-1.095c0.17-0.452,0.254-1.008,0.254-1.67
	c0-1.154-0.288-2.078-0.864-2.771c-0.577-0.695-1.834-1.041-3.769-1.041c-0.3,0-0.642,0.016-1.029,0.048L152.938,39.294
	L152.938,39.294z"/>
</svg>
