<?xml version="1.0" encoding="utf-8"?>
<!-- Generator: Adobe Illustrator 14.0.0, SVG Export Plug-In  -->
<!DOCTYPE svg PUBLIC "-//W3C//DTD SVG 1.1//EN" "http://www.w3.org/Graphics/SVG/1.1/DTD/svg11.dtd" [
	<!ENTITY ns_flows "http://ns.adobe.com/Flows/1.0/">
]>
<svg version="1.1"
	 xmlns="http://www.w3.org/2000/svg" xmlns:xlink="http://www.w3.org/1999/xlink" xmlns:a="http://ns.adobe.com/AdobeSVGViewerExtensions/3.0/"
	 x="0px" y="0px" width="20px" height="20px" viewBox="-0.458 -0.293 20 20" enable-background="new -0.458 -0.293 20 20"
	 xml:space="preserve">
<defs>
</defs>
<path fill="#FFFFFF" d="M18.992,14.985c0.04,0.309-0.054,0.577-0.282,0.805l-2.675,2.655c-0.121,0.135-0.278,0.248-0.473,0.342
	s-0.386,0.154-0.573,0.182c-0.014,0-0.054,0.003-0.121,0.01c-0.066,0.006-0.153,0.01-0.262,0.01c-0.254,0-0.667-0.043-1.237-0.131
	c-0.569-0.087-1.267-0.302-2.091-0.644c-0.825-0.342-1.76-0.854-2.807-1.538c-1.046-0.684-2.159-1.623-3.338-2.816
	c-0.939-0.926-1.718-1.811-2.334-2.655C2.182,10.359,1.687,9.578,1.311,8.86C0.936,8.143,0.654,7.493,0.466,6.909
	C0.278,6.326,0.151,5.823,0.084,5.401C0.017,4.978-0.01,4.646,0.003,4.405c0.014-0.241,0.021-0.375,0.021-0.402
	C0.05,3.814,0.111,3.624,0.205,3.429c0.094-0.194,0.208-0.352,0.342-0.473l2.676-2.675C3.41,0.094,3.625,0,3.866,0
	C4.04,0,4.194,0.05,4.328,0.151s0.248,0.225,0.342,0.372l2.152,4.083C6.943,4.821,6.976,5.055,6.922,5.31S6.755,5.779,6.581,5.954
	L5.595,6.939C5.569,6.966,5.545,7.01,5.525,7.07c-0.02,0.061-0.03,0.111-0.03,0.151c0.054,0.282,0.174,0.604,0.362,0.966
	c0.16,0.322,0.408,0.714,0.744,1.177c0.335,0.463,0.812,0.996,1.428,1.599c0.604,0.617,1.141,1.096,1.609,1.438
	c0.469,0.343,0.861,0.594,1.176,0.754c0.315,0.162,0.558,0.259,0.726,0.293l0.25,0.05c0.027,0,0.07-0.011,0.132-0.03
	c0.06-0.02,0.104-0.043,0.13-0.07l1.147-1.166c0.241-0.215,0.523-0.322,0.845-0.322c0.228,0,0.409,0.04,0.543,0.121h0.02
	l3.882,2.292C18.771,14.496,18.938,14.716,18.992,14.985L18.992,14.985z M18.992,14.985"/>
</svg>
